<?xml version="1.0" encoding="UTF-8" standalone="no"?>
<!DOCTYPE svg  PUBLIC '-//W3C//DTD SVG 1.1//EN'  'http://www.w3.org/Graphics/SVG/1.1/DTD/svg11.dtd'>
<svg xmlns="http://www.w3.org/2000/svg">
<defs>
<font id="Futuris-Bold" horiz-adv-x="606">
<font-face underline-position="-55" font-weight="700" descent="-200" panose-1="0 0 0 0 0 0 0 0 0 0" units-per-em="1000" unicode-range="U+0020-2122" bbox="-28 -225 1299 900" x-height="483" underline-thickness="50" font-family="Futuris" ascent="800" cap-height="700"/>
<missing-glyph horiz-adv-x="1000"/>
<glyph glyph-name=".notdef" horiz-adv-x="1000"/>
<glyph glyph-name="glyph1" horiz-adv-x="0"/>
<glyph glyph-name="glyph2" horiz-adv-x="1000"/>
<glyph glyph-name="glyph3" horiz-adv-x="361" unicode=" "/>
<glyph glyph-name="glyph4" horiz-adv-x="340" unicode="!" d="M71 231v469h10h188v-469h-10h-188zM63 84q1 42 31 72t71 30h10q43 0 73 -30t29 -72q1 -41 -29 -71t-73 -30l-10 -1q-41 1 -71 30t-31 72z"/>
<glyph glyph-name="glyph5" horiz-adv-x="418" unicode='&quot;' d="M368 700l-36 -203h-10h-56l-34 203h10h126zM186 700l-36 -203h-10h-56l-34 203h10h126z"/>
<glyph glyph-name="glyph6" horiz-adv-x="812" unicode="#" d="M465 265l29 170h-147l-29 -170h147zM150 535h124l22 125h10h80l-22 -125h147l22 125h10h80l-22 -125h123l-17 -100h-123l-29 -170h122l-16 -100h-123l-22 -125h-10h-80l22 125h-147l-22 -125h-10h-80l22 125h-123l16 100h124l29 170h-123z"/>
<glyph glyph-name="glyph7" horiz-adv-x="568" unicode="$" d="M331 -17v-99h-10h-91v99l-20 4l-20 4q-42 9 -86 33t-97 68l92 149h10l7 -7l6 -6q32 -32 72 -58t84 -29q6 -1 12 1t13 5q15 6 27 20t13 40q-1 37 -25 53t-60 30q-6 1 -11 3t-11 4q-15 5 -32 11t-34 14q-48 22 -88 66t-39 130q-1 74 31 114t70 60q24 12 48 17t38 7v110h10 h91v-108q7 0 15 -1t16 -3q42 -8 80 -24t68 -39l-70 -147h-10q-28 27 -58 44t-64 18q-30 -1 -48 -16t-19 -44q1 -20 11 -31t33 -21q7 -3 17 -6t21 -7q133 -41 175 -97t42 -144q0 -90 -46 -138t-101 -64q-15 -6 -31 -9t-31 -5v-1z"/>
<glyph glyph-name="glyph8" horiz-adv-x="892" unicode="%" d="M146 528v-8t2 -10q6 -21 24 -39t46 -20q32 2 52 24t20 53t-18 50t-41 25q-3 0 -7 1t-6 1q-30 -2 -51 -25t-21 -52zM21 528v6v5q5 69 57 125t135 56h10q80 0 136 -57t56 -135t-56 -135t-136 -57h-10q-80 0 -136 57t-56 135zM602 172v-8t2 -10q6 -21 24 -39t46 -20 q32 2 52 24t20 53t-18 50t-41 25q-3 0 -7 1t-6 1q-30 -2 -51 -25t-21 -52zM477 172q0 78 56 135t136 57h10q80 0 136 -57t56 -135t-56 -134t-136 -57l-10 -1q-78 0 -135 56t-57 136zM168 -20l455 740h10h91l-455 -740h-10h-91z"/>
<glyph glyph-name="glyph9" horiz-adv-x="752" unicode="&amp;" d="M341 431q5 5 11 9t10 9q16 15 28 35t13 44q0 28 -12 42t-27 19l-8 2t-7 1h-6t-6 -2q-16 -6 -29 -22t-13 -47q-1 -7 1 -15t5 -16q6 -16 17 -31t23 -28zM385 164l-103 115q-28 -17 -45 -39t-17 -54q0 -6 1 -14t4 -16q6 -16 21 -28t45 -13q7 0 14 1t14 3q15 5 31 15t35 30z M423 347l77 -85l94 94h10l99 -104l-98 -92l147 -160h-10h-203l-59 62q-8 -8 -16 -14t-14 -11q-38 -29 -78 -41t-93 -13l-10 -1q-117 2 -175 58t-59 138q-1 21 5 48t25 56q18 26 50 51t85 45q-10 12 -18 22t-16 21q-14 21 -21 43t-7 52q0 80 52 141t148 61h10q96 0 148 -56 t52 -138q0 -56 -26 -92t-74 -69l-12 -8t-13 -8z"/>
<glyph glyph-name="glyph10" horiz-adv-x="236" unicode="&apos;" d="M186 700l-36 -203h-10h-56l-34 203h10h126z"/>
<glyph glyph-name="glyph11" horiz-adv-x="298" unicode="(" d="M284 -165l-98 -59h-10q-92 150 -118 272t-26 218q0 97 26 219t118 271h10l98 -59q-73 -130 -96 -238t-23 -193q0 -84 23 -192t96 -238v-1z"/>
<glyph glyph-name="glyph12" horiz-adv-x="298" unicode=")" d="M14 697l98 59h10q92 -149 118 -271t26 -219q0 -96 -26 -218t-118 -271l-10 -1l-98 59q53 95 86 203t33 228t-33 228t-86 203z"/>
<glyph glyph-name="glyph13" horiz-adv-x="491" unicode="*" d="M201 735h98v-126l105 60h10l49 -85l-115 -66l115 -66l-49 -85h-10l-105 60v-126h-10h-98v126l-104 -60h-10l-49 85l114 66l-114 66l49 85h10l104 -60v126h10z"/>
<glyph glyph-name="glyph14" horiz-adv-x="650" unicode="+" d="M370 80h-100v220h-220v100h220v220h10h100v-220h220v-100h-220v-220h-10z"/>
<glyph glyph-name="glyph15" horiz-adv-x="332" unicode="," d="M14 -140l105 308h10h175l-147 -308h-10h-133z"/>
<glyph glyph-name="glyph16" horiz-adv-x="430" unicode="-" d="M50 350h340v-154h-10h-340v154h10z"/>
<glyph glyph-name="glyph17" horiz-adv-x="340" unicode="." d="M63 84q1 42 31 72t71 30h10q41 0 71 -30t31 -72q-1 -43 -31 -72t-71 -29l-10 -1q-41 1 -71 30t-31 72z"/>
<glyph glyph-name="glyph18" horiz-adv-x="522" unicode="/" d="M21 -210l365 945h10h105l-365 -945h-10h-105z"/>
<glyph glyph-name="glyph19" d="M303 127q45 3 61 47t20 98q2 20 2 40v38v38t-2 40q-4 54 -20 98t-61 47q-45 -3 -61 -47t-20 -98q-2 -20 -2 -40v-38v-38t2 -40q4 -54 20 -98t61 -47zM298 -20q-116 1 -172 64t-75 139q-13 48 -16 93t-3 74t3 74t16 93q19 75 75 139t172 64h10q116 0 172 -64t75 -139 q13 -48 16 -93t3 -74t-3 -74t-16 -93q-19 -76 -75 -139t-172 -63z" unicode="0"/>
<glyph glyph-name="glyph20" d="M247 0v539h-107v161h10h288v-700h-10h-181z" unicode="1"/>
<glyph glyph-name="glyph21" d="M556 154v-154h-10h-539l290 338q39 45 57 72t23 50q1 6 1 11t1 11q0 35 -21 62t-58 29q-6 -1 -16 -3t-23 -10q-16 -10 -30 -34t-14 -72h-10h-175q0 18 3 38t8 40q19 70 77 129t179 59h10q127 0 191 -70t64 -163q0 -23 -4 -45t-12 -42q-20 -50 -68 -106t-130 -140h206z " unicode="2"/>
<glyph glyph-name="glyph22" d="M217 499h-175q12 91 52 137t87 64q32 12 62 16t51 4h10q92 0 165 -46t73 -145q0 -55 -28 -93t-75 -50v-3q2 -1 4 -1t4 -2q45 -14 81 -56t36 -121q0 -87 -42 -133t-92 -66q-46 -17 -86 -20t-47 -3l-10 -1q-104 1 -158 43t-76 93q-14 31 -19 60t-6 49h10h175v-4q0 -8 1 -17 t4 -19q6 -21 24 -39t54 -19q36 1 54 19t24 38q3 12 4 22t1 18q0 41 -23 59t-63 19h-12t-12 -1h-10v120h22q5 0 15 1t23 7q16 7 29 23t13 47q1 33 -13 49t-31 21q-5 2 -10 3t-10 1q-28 -1 -49 -21t-21 -50v-3h-10z" unicode="3"/>
<glyph glyph-name="glyph23" d="M329 315v229l-144 -228zM329 0v168h-315v144l252 388h10h231v-385h78v-147h-78v-168h-10h-168z" unicode="4"/>
<glyph glyph-name="glyph24" d="M536 546h-259l-16 -89q13 3 31 5t39 1h10q107 0 165 -62t58 -154q0 -107 -80 -187t-222 -79l-10 -1q-64 1 -116 16t-101 46l15 168h10h21q37 -38 67 -56t60 -23q8 -2 18 -3t19 -1q58 3 96 33t38 91q-1 55 -43 81t-107 27q-4 -1 -8 -1h-8q-24 -2 -48 -9t-51 -20h-10h-33 l77 371h10h378v-154z" unicode="5"/>
<glyph glyph-name="glyph25" d="M299 127q44 3 69 33t25 72t-25 72t-69 32q-45 -2 -69 -32t-24 -72q0 -41 24 -72t69 -33zM275 700h207l-168 -241q10 1 21 3t24 2h10q97 0 153 -66t56 -164q0 -105 -70 -179t-202 -74l-10 -1q-124 1 -196 71t-72 183q0 42 8 80t24 75q9 19 20 39t25 39l160 233h10z" unicode="6"/>
<glyph glyph-name="glyph26" d="M64 0l264 539h-286v161h10h554l-322 -700h-10h-210z" unicode="7"/>
<glyph glyph-name="glyph27" d="M303 431h3t2 1q24 2 44 20t19 54q0 34 -15 50t-32 22q-6 2 -11 3t-10 1t-11 -2t-13 -4q-15 -6 -29 -22t-14 -48q0 -36 18 -54t41 -20h4t4 -1zM303 127q39 3 61 29t22 61q0 37 -18 57t-41 27q-6 2 -12 3t-12 1q-32 -1 -57 -25t-25 -63q-1 -34 21 -61t61 -29zM445 372v-2 q11 -3 25 -9t29 -16q31 -19 55 -55t24 -98q0 -17 -3 -38t-12 -43q-20 -49 -77 -89t-178 -41l-10 -1q-121 2 -178 42t-77 89q-9 22 -12 43t-3 38q0 62 24 98t55 55q15 10 29 16t25 9v2q-41 15 -71 53t-30 102q0 81 60 137t178 56h10q118 0 178 -56t60 -137q0 -64 -30 -102 t-71 -53z" unicode="8"/>
<glyph glyph-name="glyph28" d="M307 573q-44 -3 -69 -33t-25 -72t25 -72t69 -32q45 2 69 32t24 72q0 41 -24 72t-69 33zM331 0h-207l168 241q-10 -1 -21 -3t-24 -2h-10q-97 0 -153 66t-56 164q0 106 71 180t201 74h10q124 0 196 -70t72 -184q0 -42 -8 -80t-24 -75q-9 -19 -20 -39t-25 -39l-160 -233h-10 z" unicode="9"/>
<glyph glyph-name="glyph29" horiz-adv-x="340" unicode=":" d="M63 399q-1 41 29 71t73 31h10q41 1 71 -29t31 -73q-1 -43 -31 -73t-71 -29h-10q-41 -1 -71 29t-31 73zM63 84q1 42 31 72t71 30h10q41 0 71 -30t31 -72q-1 -43 -31 -72t-71 -29l-10 -1q-41 1 -71 30t-31 72z"/>
<glyph glyph-name="glyph30" horiz-adv-x="332" unicode=";" d="M90 399q0 43 30 73t72 29h10q42 -1 72 -31t30 -71t-30 -71t-72 -31h-10q-42 -1 -72 29t-30 73zM14 -140l105 308h10h175l-147 -308h-10h-133z"/>
<glyph glyph-name="glyph31" horiz-adv-x="510" unicode="&lt;" d="M168 350l292 -140v-100h-10l-400 200v80l400 200h10v-100z"/>
<glyph glyph-name="glyph32" horiz-adv-x="650" unicode="=" d="M50 390v100h10h540v-100h-10h-540zM50 210v100h10h540v-100h-10h-540z"/>
<glyph glyph-name="glyph33" horiz-adv-x="510" unicode="&gt;" d="M342 350l-292 140v100h10l400 -200v-80l-400 -200h-10v100z"/>
<glyph glyph-name="glyph34" horiz-adv-x="535" unicode="?" d="M196 496h-168v8v8q4 78 60 143t175 65h10q115 0 169 -57t63 -125q1 -8 1 -14t1 -13q-1 -81 -43 -135t-111 -56v-89h-10h-168v181h48q7 0 21 1t30 7q20 8 38 26t17 56q0 4 -1 14t-6 21q-6 13 -18 24t-36 12q-23 -1 -36 -13t-19 -25q-3 -9 -5 -17t-2 -14v-8h-10zM157 84 q-1 42 29 72t73 30h10q43 0 73 -30t29 -72q1 -41 -29 -71t-73 -30l-10 -1q-43 1 -73 31t-29 71z"/>
<glyph glyph-name="glyph35" horiz-adv-x="888" unicode="@" d="M407 250q33 2 53 22t31 44q8 16 11 31t3 24v1q-1 4 -1 14t-5 21q-3 14 -15 25t-35 13q-37 -2 -57 -29t-28 -60q-3 -9 -4 -19t-1 -19q1 -5 1 -11t1 -12q3 -15 13 -29t33 -16zM648 530l-56 -259q-2 -5 -2 -9v-10q0 -16 9 -24t27 -10q8 0 16 2t16 3q36 9 66 43t30 104 q0 147 -96 220t-219 74q-121 -1 -213 -84t-91 -230q1 -157 95 -237t208 -85h5h6q47 0 85 14t66 32h10l29 -44q-18 -12 -36 -20t-35 -13q-27 -9 -55 -13t-59 -3l-10 -1q-188 1 -284 110t-96 260q0 170 110 270t260 100h10q164 0 250 -76t114 -167q8 -28 12 -55t4 -52 q0 -104 -64 -159t-139 -59h-5h-6h-10q-32 0 -52 12t-33 27q-3 5 -7 9t-5 8q-11 -12 -23 -21t-24 -16q-18 -11 -34 -15t-31 -4h-10q-10 0 -20 1t-20 3q-45 10 -81 44t-36 106q0 96 68 164t154 69h10q30 -1 48 -11t28 -26l6 28h10h100z"/>
<glyph glyph-name="glyph36" horiz-adv-x="731" unicode="A" d="M366 522l-75 -247h150zM-7 0l249 700h10h238l248 -700h-10h-210l-38 121h-228l-39 -121h-10h-210z"/>
<glyph glyph-name="glyph37" horiz-adv-x="688" unicode="B" d="M269 424h72q43 0 62 14t25 30q2 6 2 12t1 10q1 26 -19 48t-71 22h-72v-136zM269 140h80h21t26 4q22 4 40 20t18 50t-18 48t-40 19q-12 3 -24 3h-19h-84v-144zM73 700h339q95 0 139 -34t58 -75q7 -19 9 -37t3 -32q-1 -54 -33 -92t-76 -54v-2q12 -3 29 -9t35 -17 q32 -19 58 -55t26 -98v-11t-1 -12q-7 -64 -60 -118t-168 -54h-10h-358v700h10z"/>
<glyph glyph-name="glyph38" horiz-adv-x="624" unicode="C" d="M589 32q-21 -14 -42 -23t-42 -15q-27 -8 -53 -10t-52 -3l-10 -1q-148 1 -253 98t-105 272q0 182 110 276t245 94h10q18 0 37 -2t39 -6q29 -6 59 -18t57 -30v-203h-10q-6 7 -14 15t-18 17q-23 19 -55 35t-74 17q-82 -1 -128 -61t-46 -140q0 -90 52 -138t122 -51 q54 2 94 25t67 51h10v-199z"/>
<glyph glyph-name="glyph39" horiz-adv-x="721" unicode="D" d="M269 168h12q16 0 38 2t45 10q43 13 78 51t35 119q1 98 -55 140t-141 42h-12v-364zM63 0v700h10h256q149 0 223 -56t104 -125q24 -53 28 -101t5 -68q0 -134 -83 -242t-277 -108h-10h-256z"/>
<glyph glyph-name="glyph40" horiz-adv-x="535" unicode="E" d="M63 0v700h10h420v-168h-224v-98h203v-154h-203v-112h224v-168h-10h-420z"/>
<glyph glyph-name="glyph41" horiz-adv-x="521" unicode="F" d="M63 0v700h10h420v-168h-224v-105h203v-161h-203v-266h-10h-196z"/>
<glyph glyph-name="glyph42" horiz-adv-x="809" unicode="G" d="M399 406h376q1 -10 1 -23t1 -27q1 -30 -3 -66t-14 -73q-25 -89 -99 -163t-234 -73l-10 -1q-155 0 -270 92t-115 273q0 167 100 271t271 104h10q107 0 193 -42t132 -128l-173 -81h-10q-19 38 -56 60t-86 23q-71 0 -123 -52t-52 -151q0 -101 52 -157t130 -58q57 2 98 34 t53 84h-182v154h10z"/>
<glyph glyph-name="glyph43" horiz-adv-x="766" unicode="H" d="M63 0v700h10h196v-252h228v252h10h196v-700h-10h-196v280h-228v-280h-10h-196z"/>
<glyph glyph-name="glyph44" horiz-adv-x="332" unicode="I" d="M63 0v700h10h196v-700h-10h-196z"/>
<glyph glyph-name="glyph45" horiz-adv-x="500" unicode="J" d="M0 102l126 101h10q0 -4 2 -8l4 -8q8 -13 20 -25t33 -14q31 2 37 24t6 50v478h10h196v-458q0 -22 -2 -52t-12 -61q-14 -56 -60 -102t-144 -46l-10 -1v1q-8 1 -48 5t-86 32q-22 14 -43 34t-39 50z"/>
<glyph glyph-name="glyph46" horiz-adv-x="710" unicode="K" d="M63 0v700h10h196v-280l201 280h10h230l-266 -339l273 -361h-10h-245l-193 286v-286h-10h-196z"/>
<glyph glyph-name="glyph47" horiz-adv-x="493" unicode="L" d="M63 0v700h10h196v-532h210v-168h-10h-406z"/>
<glyph glyph-name="glyph48" horiz-adv-x="880" unicode="M" d="M14 0l102 700h10h196l118 -410l118 410h10h196l102 -700h-10h-188l-49 382l-111 -382h-10h-126l-111 382l-49 -382h-10h-188z"/>
<glyph glyph-name="glyph49" horiz-adv-x="787" unicode="N" d="M63 0v700h10h206l246 -397v397h10h189v-700h-10h-203l-249 404v-404h-10h-189z"/>
<glyph glyph-name="glyph50" horiz-adv-x="826" unicode="O" d="M412 148q10 0 21 2t22 5q47 13 87 59t40 136t-40 136t-87 59q-11 3 -21 5t-21 2t-23 -2t-23 -6q-47 -14 -85 -60t-38 -134t38 -134t85 -60q11 -4 23 -6t22 -2zM408 -20q-184 0 -280 111t-96 259q0 146 94 258t282 112h10q188 0 282 -112t94 -258q0 -148 -94 -258 t-282 -111z"/>
<glyph glyph-name="glyph51" horiz-adv-x="651" unicode="P" d="M269 546v-161h46q43 0 63 14t27 30q4 11 5 21t1 16q-1 6 -1 12t-1 12q-5 20 -25 38t-69 18h-46zM63 0v700h10h295q112 0 168 -48t74 -106q7 -22 10 -42t3 -38t-3 -38t-10 -42q-18 -58 -74 -106t-168 -49h-99v-231h-10h-196z"/>
<glyph glyph-name="glyph52" horiz-adv-x="828" unicode="Q" d="M514 306l48 -57q10 21 15 45t5 56q0 90 -40 136t-87 59q-11 3 -21 5t-21 2t-23 -2t-23 -6q-47 -14 -85 -60t-38 -134t38 -134t85 -60q11 -4 23 -6t23 -2q19 1 33 4t22 7l-84 93l120 54h10zM807 0l-126 -60h-10l-67 82q-40 -20 -85 -30t-101 -11l-10 -1q-156 0 -266 96 t-110 274t110 274t266 96h10q188 0 282 -112t94 -258q0 -16 -4 -62t-27 -99q-9 -21 -21 -41t-30 -40z"/>
<glyph glyph-name="glyph53" horiz-adv-x="654" unicode="R" d="M269 385h38q50 0 70 23t22 50v4v4v4v6q-3 26 -23 48t-69 22h-38v-161zM63 0v700h10h290q10 0 45 -2t74 -19q46 -19 84 -62t39 -127q1 -92 -43 -140t-96 -67q-2 -1 -4 -1t-4 -2l196 -280h-10h-237l-138 215v-215h-10h-196z"/>
<glyph glyph-name="glyph54" horiz-adv-x="570" unicode="S" d="M511 651l-70 -147h-10l-10 8t-10 9q-25 19 -50 31t-53 14q-27 -1 -41 -11t-20 -23q-4 -7 -5 -14t-1 -12q0 -22 15 -34t34 -19q9 -3 18 -5t16 -4q18 -4 42 -10t48 -19q48 -23 88 -69t40 -136q0 -121 -80 -175t-183 -54l-10 -1q-28 1 -53 5t-50 12q-38 12 -76 35t-83 60 l93 149h10q5 -5 10 -9t10 -10q28 -24 62 -45t71 -27q4 -2 8 -2h8q28 1 41 11t18 22q3 7 4 14t1 12q0 39 -27 55t-67 27q-2 1 -5 1t-6 2q-16 4 -34 10t-38 14q-46 20 -85 64t-39 129q0 89 64 150t182 61h10q28 0 86 -10t122 -55q0 -1 2 -2t3 -2z"/>
<glyph glyph-name="glyph55" horiz-adv-x="528" unicode="T" d="M161 0v532h-154v168h10h504v-168h-154v-532h-10h-196z"/>
<glyph glyph-name="glyph56" horiz-adv-x="738" unicode="U" d="M66 700h196v-413q0 -11 2 -27t6 -35q9 -28 31 -52t68 -25q47 1 69 25t30 52q4 19 6 35t2 27v413h10h196v-417q0 -157 -86 -229t-222 -73l-10 -1q-136 2 -222 74t-86 229v417h10z"/>
<glyph glyph-name="glyph57" horiz-adv-x="728" unicode="V" d="M270 0l-277 700h10h231l140 -446l137 446h10h214l-266 -700h-10h-189z"/>
<glyph glyph-name="W" horiz-adv-x="1102" unicode="W" d="M551 429l-110 -429h-10h-192l-246 700h10h214l119 -409l105 409h10h210l105 -409l119 409h10h214l-246 -700h-10h-192z"/>
<glyph glyph-name="glyph59" horiz-adv-x="723" unicode="X" d="M362 223l-135 -223h-10h-224l256 368l-231 332h10h235l99 -180l99 180h10h222l-219 -322l256 -378h-10h-231z"/>
<glyph glyph-name="glyph60" horiz-adv-x="676" unicode="Y" d="M235 0v272l-242 428h10h231l114 -236l111 236h10h214l-242 -428v-272h-10h-196z"/>
<glyph glyph-name="glyph61" horiz-adv-x="619" unicode="Z" d="M-7 0l322 532h-266v168h10h567l-315 -532h287v-168h-10h-595z"/>
<glyph glyph-name="glyph62" horiz-adv-x="325" unicode="[" d="M301 -210h-245v945h10h245v-84h-105v-777h105v-84h-10z"/>
<glyph glyph-name="glyph63" horiz-adv-x="522" unicode="\" d="M491 -210h-105l-365 945h10h105l365 -945h-10z"/>
<glyph glyph-name="glyph64" horiz-adv-x="325" unicode="]" d="M24 735h245v-945h-10h-245v84h105v777h-105v84h10z"/>
<glyph glyph-name="glyph65" horiz-adv-x="590" unicode="^" d="M295 640l-115 -140h-10h-130l156 200h10h188l156 -200h-10h-130z"/>
<glyph glyph-name="glyph66" horiz-adv-x="510" unicode="_" d="M10 -110h500v-100h-10h-500v100h10z"/>
<glyph glyph-name="glyph67" horiz-adv-x="370" unicode="`" d="M-18 700h223l109 -161h-10h-132l-200 161h10z"/>
<glyph glyph-name="glyph68" horiz-adv-x="647" unicode="a" d="M320 126q44 2 72 32t28 84q0 52 -28 83t-72 32q-48 -2 -72 -34t-27 -70v-5v-6q0 -44 24 -79t75 -37zM413 436v47h10h168v-483h-10h-168v45q-26 -28 -63 -45t-85 -17l-10 -1q-109 1 -167 79t-58 181q0 12 1 25t3 26q12 78 64 143t157 65h10q41 0 77 -13t71 -52z"/>
<glyph glyph-name="glyph69" horiz-adv-x="648" unicode="b" d="M327 126q43 2 71 32t29 84q0 52 -28 83t-72 32q-43 -3 -65 -25t-29 -49q-3 -11 -5 -21t-1 -20q-1 -10 1 -20t5 -20q7 -28 29 -51t65 -25zM234 46v-46h-10h-168v735h10h175v-291q5 4 9 8l8 8q28 22 58 32t67 9h10q105 0 165 -73t60 -186q0 -103 -59 -181t-166 -78l-10 -1 l-34 4t-35 8q-21 6 -41 19t-39 33z"/>
<glyph glyph-name="glyph70" horiz-adv-x="469" unicode="c" d="M439 172v-153q-3 -1 -15 -7t-30 -11q-20 -6 -48 -12t-60 -6l-10 -1q-122 2 -184 80t-62 180q0 106 64 182t182 77h10q18 0 34 -2t34 -5q20 -4 41 -12t44 -19v-152h-10q-25 23 -53 36t-57 14q-50 -1 -74 -37t-24 -83q0 -49 27 -82t78 -35q20 0 46 10t57 38h10z"/>
<glyph glyph-name="glyph71" horiz-adv-x="648" unicode="d" d="M321 126q43 2 71 32t29 84q0 52 -28 83t-72 32q-43 -3 -65 -25t-29 -49q-3 -11 -5 -21t-1 -20q-1 -10 1 -20t5 -20q7 -28 29 -51t65 -25zM407 444v291h10h175v-735h-10h-168v46l-8 -8l-10 -10q-20 -17 -52 -31t-78 -14l-10 -1q-90 1 -158 68t-68 192q0 113 60 186t166 73 h10q42 -1 76 -13t65 -44z"/>
<glyph glyph-name="glyph72" horiz-adv-x="602" unicode="e" d="M208 298h186q-2 36 -24 66t-69 32q-41 -2 -66 -30t-27 -68zM568 147q-20 -59 -56 -93t-73 -49q-39 -15 -75 -19t-56 -3l-10 -1q-108 1 -188 66t-80 194q0 112 70 186t196 73h10q118 0 175 -56t77 -123q8 -28 11 -55t3 -50v-7v-7h-368v-5v-12t2 -12q6 -32 29 -59t68 -28 q34 2 57 17t30 43h10h168z"/>
<glyph glyph-name="glyph73" horiz-adv-x="367" unicode="f" d="M70 0v357h-63v126h63v95q0 10 2 33t13 48q15 31 53 59t118 28h10q11 0 26 -2t30 -3q10 -1 20 -3t18 -3v-128h-10q-4 3 -10 5t-12 3t-12 3t-11 2q-21 -2 -31 -14t-15 -26q-3 -10 -3 -19t-1 -15v-63h105v-126h-105v-357h-10h-175z"/>
<glyph glyph-name="glyph74" horiz-adv-x="655" unicode="g" d="M324 140q40 2 72 30t32 82q0 47 -22 71t-49 32q-9 3 -17 5t-16 1q-8 0 -18 -2t-21 -7q-24 -8 -44 -32t-20 -68q-1 -54 29 -81t66 -30q2 -1 4 -1h4zM599 483v-469q-1 -101 -67 -169t-201 -68l-10 -1q-121 1 -187 53t-77 133l10 -1h189q0 -27 22 -42t49 -16h7t7 1 q30 3 55 24t25 86v29q-33 -27 -65 -35t-64 -8h-10q-108 0 -180 70t-72 191q0 117 69 179t157 61h10q16 0 36 -2t38 -7q22 -6 43 -17t38 -29v37h10h168z"/>
<glyph glyph-name="glyph75" horiz-adv-x="619" unicode="h" d="M56 0v735h10h175v-296q25 29 63 45t84 17h10q80 0 116 -41t47 -90q5 -24 7 -47t2 -41v-282h-10h-175v266q-1 7 -1 18t-2 22q-4 18 -16 34t-38 17q-38 -2 -62 -34t-25 -85v-238h-10h-175z"/>
<glyph glyph-name="glyph76" horiz-adv-x="298" unicode="i" d="M53 623q0 39 27 65t64 26h10q38 0 64 -26t27 -65q0 -37 -26 -64t-65 -27h-10q-35 0 -57 20t-29 44q-3 7 -4 14t-1 13zM67 483h175v-483h-10h-175v483h10z"/>
<glyph glyph-name="glyph77" horiz-adv-x="298" unicode="j" d="M53 623q0 39 27 65t64 26h10q38 0 64 -26t27 -65q0 -37 -26 -64t-65 -27h-10q-35 0 -57 20t-29 44q-3 7 -4 14t-1 13zM67 483h175v-693h-10h-175v693h10z"/>
<glyph glyph-name="glyph78" horiz-adv-x="636" unicode="k" d="M56 0v735h10h175v-426l154 174h10h217l-220 -227l245 -256h-10h-228l-168 189v-189h-10h-175z"/>
<glyph glyph-name="glyph79" horiz-adv-x="297" unicode="l" d="M56 0v735h10h175v-735h-10h-175z"/>
<glyph glyph-name="glyph80" horiz-adv-x="906" unicode="m" d="M241 442q30 29 66 44t76 15h10h3h4q39 -1 75 -16t59 -51q28 33 62 50t85 17h10q76 1 112 -37t48 -83q3 -13 5 -27t1 -27v-327h-10h-175v282v15t-4 20q-4 14 -14 26t-32 14q-2 -1 -4 -1h-4q-24 -6 -44 -28t-21 -69v-259h-10h-175v282v15t-4 20q-4 14 -14 26t-32 14 q-2 -1 -4 -1h-4q-24 -6 -44 -28t-21 -69v-259h-10h-175v483h10h175v-41z"/>
<glyph glyph-name="glyph81" horiz-adv-x="619" unicode="n" d="M241 439q25 29 63 45t84 17h10q80 0 116 -41t47 -90q5 -24 7 -47t2 -41v-282h-10h-175v266q-1 7 -1 18t-2 22q-4 18 -16 34t-38 17q-38 -2 -62 -34t-25 -85v-238h-10h-175v483h10h175v-44z"/>
<glyph glyph-name="glyph82" horiz-adv-x="648" unicode="o" d="M324 108q41 1 62 22t30 46q8 22 10 40t1 26q0 56 -26 94t-77 39q-52 -1 -78 -39t-25 -94q-1 -8 1 -26t10 -40q9 -24 30 -45t62 -23zM319 -18q-145 2 -217 76t-72 184q0 107 72 183t217 76h10q145 0 217 -76t72 -183t-72 -183t-217 -76z"/>
<glyph glyph-name="glyph83" horiz-adv-x="648" unicode="p" d="M327 126q43 2 71 32t29 84q0 52 -28 83t-72 32q-43 -3 -65 -25t-29 -49q-3 -11 -5 -21t-1 -20q-1 -10 1 -20t5 -20q7 -28 29 -51t65 -25zM234 483v-47q31 34 66 50t83 15h10q105 0 165 -73t60 -186q0 -103 -59 -181t-166 -78l-10 -1q-40 2 -75 14t-67 43v-249h-10h-175 v693h10h168z"/>
<glyph glyph-name="glyph84" horiz-adv-x="648" unicode="q" d="M321 126q43 2 71 32t29 84q0 52 -28 83t-72 32q-43 -3 -65 -25t-29 -49q-3 -11 -5 -21t-1 -20q-1 -10 1 -20t5 -20q7 -28 29 -51t65 -25zM582 -210h-175v248q-25 -26 -61 -40t-80 -15l-10 -1q-90 1 -158 68t-68 192q0 113 60 186t166 73h10q46 0 82 -15t66 -49v46h10h168 v-693h-10z"/>
<glyph glyph-name="glyph85" horiz-adv-x="423" unicode="r" d="M234 433q14 17 30 29t34 19q16 7 32 10t31 3h10h9t12 -1q2 -1 4 -1h4q6 -2 10 -2h6v-154h-10q-3 2 -6 3t-7 2q-6 3 -12 3h-14q-49 0 -75 -22t-37 -48q-11 -23 -13 -43t-1 -25v-206h-10h-175v483h10h168v-50z"/>
<glyph glyph-name="glyph86" horiz-adv-x="476" unicode="s" d="M21 30l49 121h10q6 -4 14 -8t16 -9q20 -10 46 -18t53 -10q18 0 28 6t14 12q3 5 4 9t1 7q0 16 -11 24t-24 12q-5 1 -11 2t-10 2q-72 11 -118 42t-45 109q0 10 1 21t4 22q10 48 54 88t139 39h10q41 0 89 -9t100 -33l-55 -112h-10q-3 1 -5 3t-5 4q-26 16 -51 24t-45 8 q-21 -1 -31 -8t-13 -15q-3 -5 -3 -10t-1 -8v-4v-4q1 -11 15 -21t58 -15q12 -1 30 -4t37 -10q32 -13 59 -43t27 -90q0 -65 -46 -119t-168 -54l-10 -1q-61 0 -108 12t-88 38z"/>
<glyph glyph-name="glyph87" horiz-adv-x="360" unicode="t" d="M70 0v357h-63v126h63v133h10h175v-133h98v-126h-98v-357h-10h-175z"/>
<glyph glyph-name="glyph88" horiz-adv-x="612" unicode="u" d="M59 483h175v-264v-19t4 -21q6 -19 20 -35t48 -18q34 2 48 18t20 35q4 11 4 21v19v264h10h175v-260q-1 -20 -3 -48t-13 -57q-19 -51 -71 -93t-165 -42l-10 -1q-112 0 -164 42t-71 93q-11 31 -14 59t-3 47v260h10z"/>
<glyph glyph-name="glyph89" horiz-adv-x="548" unicode="v" d="M213 0l-224 483h10h189l100 -246l83 246h10h178l-199 -483h-10h-137z"/>
<glyph glyph-name="glyph90" horiz-adv-x="794" unicode="w" d="M397 237l-77 -237h-10h-125l-196 483h10h172l86 -244l75 244h10h120l75 -244l86 244h10h172l-196 -483h-10h-125z"/>
<glyph glyph-name="glyph91" horiz-adv-x="612" unicode="x" d="M-7 0l212 258l-177 225h10h214l72 -121l74 121h10h204l-182 -227l189 -256h-10h-203l-93 150l-98 -150h-10h-212z"/>
<glyph glyph-name="glyph92" horiz-adv-x="618" unicode="y" d="M-1 483h203l128 -248l108 248h10h181l-350 -693h-10h-189l147 280l-238 413h10z"/>
<glyph glyph-name="glyph93" horiz-adv-x="528" unicode="z" d="M38 483h483l-248 -357h227v-126h-10h-490l245 357h-217v126h10z"/>
<glyph glyph-name="glyph94" horiz-adv-x="493" unicode="{" d="M100 196v100q8 0 16 2t17 6q23 10 42 38t19 89v45t-2 15q-2 3 -2 13v43q0 77 35 113t77 47q18 5 35 7t32 2h10h7h7v-80q-7 0 -13 -2l-12 -4q-23 -8 -42 -29t-19 -60q1 -13 1 -26t1 -26q1 -7 1 -13t1 -13q3 -21 3 -43v-44q0 -10 -2 -24t-8 -28q-9 -22 -32 -42t-69 -32v-8 q79 -25 95 -57t16 -67v-44t-3 -45q-1 -19 -3 -39t-1 -40q-1 -6 1 -18t9 -27t25 -29t51 -19v-81h-10q-4 1 -8 1h-9q-10 0 -22 1t-24 3q-50 9 -90 45t-40 120v28t2 28v15t1 15q1 6 1 14v15q0 11 -2 27t-6 34q-8 26 -28 48t-58 26z"/>
<glyph glyph-name="glyph95" horiz-adv-x="210" unicode="|" d="M50 -224v1053h10h100v-1053h-10h-100z"/>
<glyph glyph-name="glyph96" horiz-adv-x="493" unicode="}" d="M393 296v-100q-7 0 -15 -2t-18 -6q-23 -10 -42 -38t-19 -89q1 -35 1 -45t1 -15q1 -3 1 -13t1 -42q-1 -77 -35 -113t-76 -48q-17 -5 -34 -7t-31 -2l-10 -1q-3 1 -5 1h-4q-2 1 -4 1h-4v79l12 4t13 3q23 8 42 29t19 60v26t-2 25q-1 7 -1 13t-1 13q-1 21 -2 43t-1 44 q0 10 2 24t8 28q9 22 32 42t69 32v8q-79 26 -95 58t-16 66q0 23 1 45l2 44q2 20 3 40t1 40q0 7 -2 19t-8 26q-8 16 -26 30t-50 18v80h4t6 1h4h6h10q11 0 22 -1t22 -3q49 -9 89 -45t40 -121q-1 -15 -1 -29t-1 -28q-1 -6 -1 -14v-15q-1 -8 -1 -15v-15q-1 -11 1 -27t7 -34 q7 -26 27 -48t59 -26z"/>
<glyph glyph-name="glyph97" horiz-adv-x="610" unicode="~" d="M50 290v100q18 20 41 32t47 16q5 2 11 2h11h10q25 0 52 -8t58 -19q60 -23 98 -37t67 -16q22 0 48 10t57 40h10v-100q-18 -20 -41 -32t-47 -16q-5 -2 -11 -2h-11h-10q-34 0 -76 16t-104 37q-31 11 -54 19t-42 8q-20 0 -46 -10t-58 -40h-10z"/>
<glyph glyph-name="uni00A0" horiz-adv-x="10" unicode=" "/>
<glyph glyph-name="Z" horiz-adv-x="829" unicode="¡" d="M218 858l114 42h10q6 -23 18 -35t26 -17q9 -4 18 -6t16 -1q7 -1 16 1t18 6q14 5 26 17t18 35h10l114 -42q-26 -60 -80 -86t-117 -26h-10q-69 0 -122 30t-75 82zM231 0l95 193l-263 507h10h231l131 -282l108 282h10h213l-315 -700h-10h-210z"/>
<glyph glyph-name="cent" horiz-adv-x="618" unicode="¢" d="M116 658l114 42h10q8 -24 20 -36t26 -17q9 -3 18 -5t16 -1q7 -1 16 1t18 6q14 5 26 17t18 35h10l114 -42q-24 -56 -74 -82t-105 -29q-5 -1 -9 -1h-9h-10h-5h-5q-58 2 -111 28t-78 84zM-1 483h203l128 -248l108 248h10h181l-350 -693h-10h-189l147 280l-238 413h10z"/>
<glyph glyph-name="endash" horiz-adv-x="500" unicode="£" d="M0 102l126 101h10q0 -4 2 -8l4 -8q8 -13 20 -25t33 -14q31 2 37 24t6 50v478h10h196v-458q0 -22 -2 -52t-12 -61q-14 -56 -60 -102t-144 -46l-10 -1v1q-8 1 -48 5t-86 32q-22 14 -43 34t-39 50z"/>
<glyph glyph-name="currency" horiz-adv-x="702" unicode="¤" d="M166 350q0 -80 54 -134t131 -56q77 2 131 58t54 132t-54 132t-131 58q-77 -2 -131 -56t-54 -134zM50 124l73 74q-19 29 -33 66t-14 86q0 48 14 86t33 66l-73 74l70 70h10l70 -69q28 19 64 31t82 12h10q46 0 82 -12t64 -31l70 69h10l70 -70l-73 -74q19 -28 33 -66t14 -86 q0 -49 -14 -86t-33 -66l73 -74l-70 -70h-10l-70 69q-28 -19 -64 -31t-82 -12h-10q-46 0 -82 12t-64 31l-70 -69h-10z"/>
<glyph glyph-name="emdash" horiz-adv-x="521" unicode="¥" d="M63 0v700h280v140h10h154v-308h-238v-532h-10h-196z"/>
<glyph glyph-name="circumflex" horiz-adv-x="340" unicode="¦" d="M63 399q-1 41 29 71t73 31h10q41 1 71 -29t31 -73q-1 -43 -31 -73t-71 -29h-10q-41 -1 -71 29t-31 73zM63 84q1 42 31 72t71 30h10q41 0 71 -30t31 -72q-1 -43 -31 -72t-71 -29l-10 -1q-41 1 -71 30t-31 72z"/>
<glyph glyph-name="scaron" d="M303 174q33 2 56 24t23 60t-22 60t-57 24q-33 -2 -56 -24t-23 -60t22 -60t57 -24zM65 6h176q-1 -1 -1 -3v-3v-3v-3v-4v-4q3 -20 18 -38t46 -19q26 1 40 17t13 40q1 35 -29 46t-73 17l-42 7t-49 13q-48 16 -88 55t-41 117q0 51 26 95t76 62q-5 4 -13 9t-16 12 q-18 16 -33 42t-15 64q0 9 1 19t3 19q13 59 68 108t163 49h10q122 0 175 -53t66 -116q2 -9 4 -19t2 -19h-10h-168v11q0 4 -1 11t-5 14q-6 11 -19 21t-38 10q-24 0 -41 -16t-17 -45q1 -25 19 -37t40 -17q10 -1 18 -3t15 -2q17 -2 45 -8t59 -18q46 -18 84 -60t38 -120v-8 t-1 -8q-4 -40 -27 -76t-63 -58q26 -12 40 -30t21 -37q5 -15 7 -29t1 -26q-1 -70 -65 -124t-187 -54l-10 -1q-108 1 -162 53t-66 113q-2 9 -3 19t-1 18h10z" unicode="§"/>
<glyph glyph-name="H" horiz-adv-x="535" unicode="¨" d="M300 823q0 33 23 55t54 22h10q33 0 55 -22t22 -55q0 -31 -22 -54t-55 -23h-10q-31 0 -54 22t-23 55zM90 823q0 33 23 55t54 22h10q33 0 55 -22t22 -55q0 -31 -22 -54t-55 -23h-10q-33 0 -55 23t-22 54zM63 0v700h10h420v-168h-224v-98h203v-154h-203v-112h224v-168h-10 h-420z"/>
<glyph glyph-name="I" horiz-adv-x="850" unicode="©" d="M575 161q-13 -6 -23 -11t-20 -9q-21 -7 -42 -11t-49 -4h-10q-99 0 -159 66t-60 158v6v8q5 78 62 144t157 65h10q37 1 71 -9t63 -28v-117h-10q-3 3 -7 5t-8 5q-16 11 -36 19t-44 10h-10t-10 -2q-33 -6 -61 -30t-28 -76q1 -50 29 -78t79 -31q16 1 32 5t32 11q8 4 16 9 t16 11h10v-116zM122 350q0 -128 90 -217t213 -91q127 2 215 93t88 215q0 126 -88 216t-215 92q-123 -2 -213 -91t-90 -217zM50 350q0 150 108 260t262 110h10q152 0 261 -108t109 -262t-109 -262t-261 -107l-10 -1q-154 0 -262 110t-108 260z"/>
<glyph glyph-name="J" horiz-adv-x="630" unicode="ª" d="M462 427v-140h-231q5 -63 49 -107t122 -46q49 0 94 18t82 51h10v-175q-21 -12 -43 -20t-44 -14q-29 -7 -57 -10t-53 -3l-10 -1q-141 1 -245 100t-104 280q0 164 102 262t246 98h10q23 0 48 -3t51 -9t51 -16t48 -21v-172h-10q-32 31 -72 47t-81 19q-3 1 -7 1h-7 q-67 0 -115 -40t-58 -99h224z"/>
<glyph glyph-name="ampersand" horiz-adv-x="549" unicode="«" d="M415 21l-170 231l170 231h10l96 -59l-126 -172l126 -171l-96 -60h-10zM198 21l-170 231l170 231h10l96 -59l-126 -172l126 -171l-96 -60h-10z"/>
<glyph glyph-name="quotesingle" horiz-adv-x="650" unicode="¬" d="M50 350v100h10h540v-250h-10h-120v150h-420z"/>
<glyph glyph-name="daggerdbl" horiz-adv-x="430" unicode="­" d="M50 350h340v-154h-10h-340v154h10z"/>
<glyph glyph-name="dagger" horiz-adv-x="856" unicode="®" d="M386 388h41h3t3 1q9 1 17 9t8 26v4v4q-2 10 -10 18t-31 8h-31v-70zM250 143v413h10h194q68 0 106 -37t38 -93q0 -46 -19 -70t-42 -34q-7 -4 -13 -6t-13 -3l101 -170h-10h-135l-81 154v-154h-10h-126zM125 350q-1 -128 89 -217t214 -91q128 2 216 93t87 215q0 128 -89 217 t-214 91q-124 -2 -214 -91t-89 -217zM53 350q0 154 110 262t260 108h10q150 0 260 -108t110 -262q0 -155 -110 -262t-260 -107l-10 -1q-150 1 -260 108t-110 262z"/>
<glyph glyph-name="macron" horiz-adv-x="398" unicode="¯" d="M214 823q0 33 23 55t54 22h10q33 0 55 -22t22 -55q0 -31 -22 -54t-55 -23h-10q-33 0 -55 23t-22 54zM20 823q0 33 23 55t54 22h10q33 0 55 -22t22 -55q0 -31 -22 -54t-55 -23h-10q-33 0 -55 23t-22 54zM96 0v700h10h196v-700h-10h-196z"/>
<glyph glyph-name="degree" horiz-adv-x="346" unicode="°" d="M115 609q1 -4 1 -8t2 -9q4 -16 18 -30t37 -16q26 2 42 20t16 43q-1 25 -17 43t-41 20q-24 -2 -38 -17t-18 -32q-1 -3 -1 -7t-1 -7zM56 609q0 47 33 79t79 33h10q46 -1 79 -33t33 -79t-33 -79t-79 -33h-10q-46 1 -79 33t-33 79z"/>
<glyph glyph-name="at" horiz-adv-x="650" unicode="±" d="M370 210h-100v180h-220v100h220v190h10h100v-190h220v-100h-220v-180h-10zM50 50v100h10h540v-100h-10h-540z"/>
<glyph glyph-name="P" horiz-adv-x="332" unicode="²" d="M63 0v700h10h196v-700h-10h-196z"/>
<glyph glyph-name="S" horiz-adv-x="298" unicode="³" d="M53 623q0 39 27 65t64 26h10q38 0 64 -26t27 -65q0 -37 -26 -64t-65 -27h-10q-35 0 -57 20t-29 44q-3 7 -4 14t-1 13zM67 483h175v-483h-10h-175v483h10z"/>
<glyph glyph-name="T" horiz-adv-x="409" unicode="´" d="M56 0v483h231v127h10h105v-253h-161v-357h-10h-175z"/>
<glyph glyph-name="U" horiz-adv-x="626" unicode="µ" d="M570 483v-483h-10h-175v35q-6 -10 -12 -17t-13 -12q-12 -9 -24 -12t-18 -3l-10 -1q-6 1 -18 4t-24 12q-7 5 -13 12t-12 17v-245h-10h-175v693h10h175v-230v-1v-2q1 -42 17 -78t55 -38q39 2 55 38t17 78v2v1v230h10h175z"/>
<glyph glyph-name="V" horiz-adv-x="592" unicode="¶" d="M413 -210v945h10h126v-945h-10h-126zM203 -210v595q-77 3 -121 49t-52 101q-2 7 -2 13v12v7t1 7q5 58 49 108t125 53h10h126v-945h-10h-126z"/>
<glyph glyph-name="quoteleft" horiz-adv-x="602" unicode="¸" d="M324 616q0 33 22 55t55 22h10q33 1 55 -21t22 -56q0 -32 -22 -54t-55 -23h-10q-33 0 -55 23t-22 54zM114 616q0 33 22 55t55 22h10q33 1 55 -21t22 -56q0 -32 -22 -54t-55 -23h-10q-33 0 -55 23t-22 54zM208 298h186q-2 36 -24 66t-69 32q-41 -2 -66 -30t-27 -68z M568 147q-20 -59 -56 -93t-73 -49q-39 -15 -75 -19t-56 -3l-10 -1q-108 1 -188 66t-80 194q0 112 70 186t196 73h10q118 0 175 -56t77 -123q8 -28 11 -55t3 -50v-7v-7h-368v-5v-12t2 -12q6 -32 29 -59t68 -28q34 2 57 17t30 43h10h168z"/>
<glyph glyph-name="one" horiz-adv-x="1207" unicode="¹" d="M978 259q28 2 43 26t15 58q0 41 -18 61t-40 23q-22 -3 -40 -23t-18 -61q0 -34 15 -58t43 -26zM973 147q-77 0 -137 50t-59 146q-1 96 59 146t137 50h10q77 1 137 -49t59 -147q1 -97 -59 -147t-137 -49h-10zM812 0v91h10h322v-91h-10h-322zM63 0v700h10h206l246 -397v397 h10h189v-700h-10h-203l-249 404v-404h-10h-189z"/>
<glyph glyph-name="G" horiz-adv-x="502" unicode="º" d="M460 7q-6 -3 -14 -5t-19 -6q-20 -5 -49 -10t-68 -5l-10 -1q-130 1 -200 80t-70 185q0 104 72 180t198 76h10q28 1 62 -5t68 -19q4 -1 8 -3t9 -4v-133h-10q-5 5 -11 9t-13 8q-19 14 -45 24t-58 11q-44 -1 -79 -25t-43 -66h199v-105h-203q5 -39 36 -65t87 -28q27 1 61 10 t72 37h10v-140z"/>
<glyph glyph-name="bracketleft" horiz-adv-x="549" unicode="»" d="M350 483l171 -231l-171 -231h-10l-95 60l126 171l-126 172l95 59h10zM133 483l171 -231l-171 -231h-10l-95 60l126 171l-126 172l95 59h10z"/>
<glyph glyph-name="w" horiz-adv-x="298" unicode="¼" d="M53 623q0 39 27 65t64 26h10q38 0 64 -26t27 -65q0 -37 -26 -64t-65 -27h-10q-35 0 -57 20t-29 44q-3 7 -4 14t-1 13zM67 483h175v-693h-10h-175v693h10z"/>
<glyph glyph-name="bracketright" horiz-adv-x="570" unicode="½" d="M511 651l-70 -147h-10l-10 8t-10 9q-25 19 -50 31t-53 14q-27 -1 -41 -11t-20 -23q-4 -7 -5 -14t-1 -12q0 -22 15 -34t34 -19q9 -3 18 -5t16 -4q18 -4 42 -10t48 -19q48 -23 88 -69t40 -136q0 -121 -80 -175t-183 -54l-10 -1q-28 1 -53 5t-50 12q-38 12 -76 35t-83 60 l93 149h10q5 -5 10 -9t10 -10q28 -24 62 -45t71 -27q4 -2 8 -2h8q28 1 41 11t18 22q3 7 4 14t1 12q0 39 -27 55t-67 27q-2 1 -5 1t-6 2q-16 4 -34 10t-38 14q-46 20 -85 64t-39 129q0 89 64 150t182 61h10q28 0 86 -10t122 -55q0 -1 2 -2t3 -2z"/>
<glyph glyph-name="R" horiz-adv-x="476" unicode="¾" d="M21 30l49 121h10q6 -4 14 -8t16 -9q20 -10 46 -18t53 -10q18 0 28 6t14 12q3 5 4 9t1 7q0 16 -11 24t-24 12q-5 1 -11 2t-10 2q-72 11 -118 42t-45 109q0 10 1 21t4 22q10 48 54 88t139 39h10q41 0 89 -9t100 -33l-55 -112h-10q-3 1 -5 3t-5 4q-26 16 -51 24t-45 8 q-21 -1 -31 -8t-13 -15q-3 -5 -3 -10t-1 -8v-4v-4q1 -11 15 -21t58 -15q12 -1 30 -4t37 -10q32 -13 59 -43t27 -90q0 -65 -46 -119t-168 -54l-10 -1q-61 0 -108 12t-88 38z"/>
<glyph glyph-name="underscore" horiz-adv-x="358" unicode="¿" d="M194 616q0 34 18 53t38 23h5t6 1h10q27 0 47 -22t20 -55q0 -31 -19 -54t-48 -23h-10h-1h-2q-24 1 -44 21t-20 56zM20 616q0 36 20 56t46 21h10q28 0 48 -22t20 -55q0 -31 -20 -54t-48 -23h-10h-2h-3q-23 2 -42 22t-19 55zM96 483h175v-483h-10h-175v483h10z"/>
<glyph glyph-name="grave" horiz-adv-x="731" unicode="À" d="M366 522l-75 -247h150zM-7 0l249 700h10h238l248 -700h-10h-210l-38 121h-228l-39 -121h-10h-210z"/>
<glyph glyph-name="grave" horiz-adv-x="731" unicode="А" d="M366 522l-75 -247h150zM-7 0l249 700h10h238l248 -700h-10h-210l-38 121h-228l-39 -121h-10h-210z"/>
<glyph glyph-name="a" horiz-adv-x="675" unicode="Á" d="M269 140h74q44 0 71 16t27 58q-1 42 -27 58t-71 15h-74v-147zM63 0v700h10h517v-168h-321v-105h103q21 0 55 -2t71 -13q56 -16 102 -60t47 -135q-1 -95 -47 -140t-101 -61q-37 -12 -72 -14t-55 -2h-10h-299z"/>
<glyph glyph-name="a" horiz-adv-x="675" unicode="Б" d="M269 140h74q44 0 71 16t27 58q-1 42 -27 58t-71 15h-74v-147zM63 0v700h10h517v-168h-321v-105h103q21 0 55 -2t71 -13q56 -16 102 -60t47 -135q-1 -95 -47 -140t-101 -61q-37 -12 -72 -14t-55 -2h-10h-299z"/>
<glyph glyph-name="b" horiz-adv-x="688" unicode="Â" d="M269 424h72q43 0 62 14t25 30q2 6 2 12t1 10q1 26 -19 48t-71 22h-72v-136zM269 140h80h21t26 4q22 4 40 20t18 50t-18 48t-40 19q-12 3 -24 3h-19h-84v-144zM73 700h339q95 0 139 -34t58 -75q7 -19 9 -37t3 -32q-1 -54 -33 -92t-76 -54v-2q12 -3 29 -9t35 -17 q32 -19 58 -55t26 -98v-11t-1 -12q-7 -64 -60 -118t-168 -54h-10h-358v700h10z"/>
<glyph glyph-name="b" horiz-adv-x="688" unicode="В" d="M269 424h72q43 0 62 14t25 30q2 6 2 12t1 10q1 26 -19 48t-71 22h-72v-136zM269 140h80h21t26 4q22 4 40 20t18 50t-18 48t-40 19q-12 3 -24 3h-19h-84v-144zM73 700h339q95 0 139 -34t58 -75q7 -19 9 -37t3 -32q-1 -54 -33 -92t-76 -54v-2q12 -3 29 -9t35 -17 q32 -19 58 -55t26 -98v-11t-1 -12q-7 -64 -60 -118t-168 -54h-10h-358v700h10z"/>
<glyph glyph-name="c" horiz-adv-x="507" unicode="Ã" d="M63 0v700h10h420v-168h-224v-532h-10h-196z"/>
<glyph glyph-name="c" horiz-adv-x="507" unicode="Г" d="M63 0v700h10h420v-168h-224v-532h-10h-196z"/>
<glyph glyph-name="d" horiz-adv-x="757" unicode="Ä" d="M330 532v-166q0 -66 -12 -116t-62 -82h204v364h-130zM150 700h516v-532h84v-308h-10h-168v140h-394v-140h-10h-168v308h10t9 2q43 8 79 46t41 112q1 12 1 24v26v8v8v306h10z"/>
<glyph glyph-name="d" horiz-adv-x="757" unicode="Д" d="M330 532v-166q0 -66 -12 -116t-62 -82h204v364h-130zM150 700h516v-532h84v-308h-10h-168v140h-394v-140h-10h-168v308h10t9 2q43 8 79 46t41 112q1 12 1 24v26v8v8v306h10z"/>
<glyph glyph-name="e" horiz-adv-x="535" unicode="Å" d="M63 0v700h10h420v-168h-224v-98h203v-154h-203v-112h224v-168h-10h-420z"/>
<glyph glyph-name="e" horiz-adv-x="535" unicode="Е" d="M63 0v700h10h420v-168h-224v-98h203v-154h-203v-112h224v-168h-10h-420z"/>
<glyph glyph-name="f" horiz-adv-x="1052" unicode="Æ" d="M423 0v292l-179 -292h-10h-241l255 357l-234 343h10h223l176 -288v288h10h196v-288l176 288h10h223l-234 -343l255 -357h-10h-241l-179 292v-292h-10h-196z"/>
<glyph glyph-name="f" horiz-adv-x="1052" unicode="Ж" d="M423 0v292l-179 -292h-10h-241l255 357l-234 343h10h223l176 -288v288h10h196v-288l176 288h10h223l-234 -343l255 -357h-10h-241l-179 292v-292h-10h-196z"/>
<glyph glyph-name="g" horiz-adv-x="601" unicode="Ç" d="M137 424h111q51 0 73 16t28 33q3 6 3 12v11q0 32 -26 50t-69 20q-29 0 -53 -8t-48 -20q-10 -4 -18 -9t-17 -11h-10l-68 137q9 5 23 13t34 15q33 13 78 25t101 12h10q121 0 195 -56t74 -142q0 -54 -32 -97t-83 -61v-3q5 -1 9 -3t10 -4q42 -16 76 -54t35 -106 q0 -103 -83 -158t-198 -55l-10 -1q-30 1 -58 4t-55 10q-37 10 -75 32t-87 58l81 130h10q22 -20 46 -36t49 -27q18 -7 36 -11t35 -6q43 1 64 17t28 35q3 6 4 12t1 13q0 29 -24 51t-89 22h-111v140z"/>
<glyph glyph-name="g" horiz-adv-x="601" unicode="З" d="M137 424h111q51 0 73 16t28 33q3 6 3 12v11q0 32 -26 50t-69 20q-29 0 -53 -8t-48 -20q-10 -4 -18 -9t-17 -11h-10l-68 137q9 5 23 13t34 15q33 13 78 25t101 12h10q121 0 195 -56t74 -142q0 -54 -32 -97t-83 -61v-3q5 -1 9 -3t10 -4q42 -16 76 -54t35 -106 q0 -103 -83 -158t-198 -55l-10 -1q-30 1 -58 4t-55 10q-37 10 -75 32t-87 58l81 130h10q22 -20 46 -36t49 -27q18 -7 36 -11t35 -6q43 1 64 17t28 35q3 6 4 12t1 13q0 29 -24 51t-89 22h-111v140z"/>
<glyph glyph-name="h" horiz-adv-x="788" unicode="È" d="M73 700h189v-405l261 405h10h192v-700h-10h-189v404l-257 -404h-10h-196v700h10z"/>
<glyph glyph-name="h" horiz-adv-x="788" unicode="И" d="M73 700h189v-405l261 405h10h192v-700h-10h-189v404l-257 -404h-10h-196v700h10z"/>
<glyph glyph-name="i" horiz-adv-x="788" unicode="É" d="M199 850l114 42h10q6 -23 18 -35t26 -17q9 -4 18 -6t16 -1q7 -1 16 1t18 6q14 5 26 17t18 35h10l114 -42q-27 -60 -81 -86t-116 -26h-10q-69 0 -122 30t-75 82zM73 700h189v-405l261 405h10h192v-700h-10h-189v404l-257 -404h-10h-196v700h10z"/>
<glyph glyph-name="i" horiz-adv-x="788" unicode="Й" d="M199 850l114 42h10q6 -23 18 -35t26 -17q9 -4 18 -6t16 -1q7 -1 16 1t18 6q14 5 26 17t18 35h10l114 -42q-27 -60 -81 -86t-116 -26h-10q-69 0 -122 30t-75 82zM73 700h189v-405l261 405h10h192v-700h-10h-189v404l-257 -404h-10h-196v700h10z"/>
<glyph glyph-name="j" horiz-adv-x="710" unicode="Ê" d="M63 0v700h10h196v-280l201 280h10h230l-266 -339l273 -361h-10h-245l-193 286v-286h-10h-196z"/>
<glyph glyph-name="j" horiz-adv-x="710" unicode="К" d="M63 0v700h10h196v-280l201 280h10h230l-266 -339l273 -361h-10h-245l-193 286v-286h-10h-196z"/>
<glyph glyph-name="k" horiz-adv-x="745" unicode="Ë" d="M150 700h532v-700h-10h-196v532h-130v-276q0 -22 -2 -48t-7 -53q-13 -63 -65 -113t-180 -50l-10 -1q-16 1 -28 1t-25 3q-7 1 -14 3t-15 2v168h10l20 -4t19 -3q65 3 78 47t13 106v386h10z"/>
<glyph glyph-name="k" horiz-adv-x="745" unicode="Л" d="M150 700h532v-700h-10h-196v532h-130v-276q0 -22 -2 -48t-7 -53q-13 -63 -65 -113t-180 -50l-10 -1q-16 1 -28 1t-25 3q-7 1 -14 3t-15 2v168h10l20 -4t19 -3q65 3 78 47t13 106v386h10z"/>
<glyph glyph-name="l" horiz-adv-x="880" unicode="Ì" d="M14 0l102 700h10h196l118 -410l118 410h10h196l102 -700h-10h-188l-49 382l-111 -382h-10h-126l-111 382l-49 -382h-10h-188z"/>
<glyph glyph-name="l" horiz-adv-x="880" unicode="М" d="M14 0l102 700h10h196l118 -410l118 410h10h196l102 -700h-10h-188l-49 382l-111 -382h-10h-126l-111 382l-49 -382h-10h-188z"/>
<glyph glyph-name="m" horiz-adv-x="766" unicode="Í" d="M63 0v700h10h196v-252h228v252h10h196v-700h-10h-196v280h-228v-280h-10h-196z"/>
<glyph glyph-name="m" horiz-adv-x="766" unicode="Н" d="M63 0v700h10h196v-252h228v252h10h196v-700h-10h-196v280h-228v-280h-10h-196z"/>
<glyph glyph-name="n" horiz-adv-x="826" unicode="Î" d="M412 148q10 0 21 2t22 5q47 13 87 59t40 136t-40 136t-87 59q-11 3 -21 5t-21 2t-23 -2t-23 -6q-47 -14 -85 -60t-38 -134t38 -134t85 -60q11 -4 23 -6t22 -2zM408 -20q-184 0 -280 111t-96 259q0 146 94 258t282 112h10q188 0 282 -112t94 -258q0 -148 -94 -258 t-282 -111z"/>
<glyph glyph-name="n" horiz-adv-x="826" unicode="О" d="M412 148q10 0 21 2t22 5q47 13 87 59t40 136t-40 136t-87 59q-11 3 -21 5t-21 2t-23 -2t-23 -6q-47 -14 -85 -60t-38 -134t38 -134t85 -60q11 -4 23 -6t22 -2zM408 -20q-184 0 -280 111t-96 259q0 146 94 258t282 112h10q188 0 282 -112t94 -258q0 -148 -94 -258 t-282 -111z"/>
<glyph glyph-name="o" horiz-adv-x="760" unicode="Ï" d="M63 0v700h10h624v-700h-10h-196v532h-222v-532h-10h-196z"/>
<glyph glyph-name="o" horiz-adv-x="760" unicode="П" d="M63 0v700h10h624v-700h-10h-196v532h-222v-532h-10h-196z"/>
<glyph glyph-name="p" horiz-adv-x="651" unicode="Ð" d="M269 546v-161h46q43 0 63 14t27 30q4 11 5 21t1 16q-1 6 -1 12t-1 12q-5 20 -25 38t-69 18h-46zM63 0v700h10h295q112 0 168 -48t74 -106q7 -22 10 -42t3 -38t-3 -38t-10 -42q-18 -58 -74 -106t-168 -49h-99v-231h-10h-196z"/>
<glyph glyph-name="p" horiz-adv-x="651" unicode="Р" d="M269 546v-161h46q43 0 63 14t27 30q4 11 5 21t1 16q-1 6 -1 12t-1 12q-5 20 -25 38t-69 18h-46zM63 0v700h10h295q112 0 168 -48t74 -106q7 -22 10 -42t3 -38t-3 -38t-10 -42q-18 -58 -74 -106t-168 -49h-99v-231h-10h-196z"/>
<glyph glyph-name="q" horiz-adv-x="624" unicode="Ñ" d="M589 32q-21 -14 -42 -23t-42 -15q-27 -8 -53 -10t-52 -3l-10 -1q-148 1 -253 98t-105 272q0 182 110 276t245 94h10q18 0 37 -2t39 -6q29 -6 59 -18t57 -30v-203h-10q-6 7 -14 15t-18 17q-23 19 -55 35t-74 17q-82 -1 -128 -61t-46 -140q0 -90 52 -138t122 -51 q54 2 94 25t67 51h10v-199z"/>
<glyph glyph-name="q" horiz-adv-x="624" unicode="С" d="M589 32q-21 -14 -42 -23t-42 -15q-27 -8 -53 -10t-52 -3l-10 -1q-148 1 -253 98t-105 272q0 182 110 276t245 94h10q18 0 37 -2t39 -6q29 -6 59 -18t57 -30v-203h-10q-6 7 -14 15t-18 17q-23 19 -55 35t-74 17q-82 -1 -128 -61t-46 -140q0 -90 52 -138t122 -51 q54 2 94 25t67 51h10v-199z"/>
<glyph glyph-name="Scaron" horiz-adv-x="528" unicode="Ò" d="M161 0v532h-154v168h10h504v-168h-154v-532h-10h-196z"/>
<glyph glyph-name="Scaron" horiz-adv-x="528" unicode="Т" d="M161 0v532h-154v168h10h504v-168h-154v-532h-10h-196z"/>
<glyph glyph-name="r" horiz-adv-x="696" unicode="Ó" d="M168 0l95 193l-263 507h10h231l131 -282l108 282h10h213l-315 -700h-10h-210z"/>
<glyph glyph-name="r" horiz-adv-x="696" unicode="У" d="M168 0l95 193l-263 507h10h231l131 -282l108 282h10h213l-315 -700h-10h-210z"/>
<glyph glyph-name="t" horiz-adv-x="930" unicode="Ô" d="M554 518v-280q11 0 27 2t32 9q31 11 55 40t24 89t-24 89t-55 40q-16 7 -32 9t-27 2zM376 238v280q-58 -1 -86 -24t-40 -51q-8 -19 -10 -37t-2 -28t2 -28t10 -37q12 -28 40 -51t86 -24zM362 0v98q-25 0 -52 2t-55 8q-83 17 -153 77t-70 193q0 132 70 192t154 79q24 5 48 7 t45 2h3h4h3h3v77h10h196v-77h8h8q26 0 62 -4t73 -17q67 -23 123 -81t56 -178q0 -134 -70 -194t-156 -77q-28 -5 -54 -7t-50 -2v-98h-10h-196z"/>
<glyph glyph-name="t" horiz-adv-x="930" unicode="Ф" d="M554 518v-280q11 0 27 2t32 9q31 11 55 40t24 89t-24 89t-55 40q-16 7 -32 9t-27 2zM376 238v280q-58 -1 -86 -24t-40 -51q-8 -19 -10 -37t-2 -28t2 -28t10 -37q12 -28 40 -51t86 -24zM362 0v98q-25 0 -52 2t-55 8q-83 17 -153 77t-70 193q0 132 70 192t154 79q24 5 48 7 t45 2h3h4h3h3v77h10h196v-77h8h8q26 0 62 -4t73 -17q67 -23 123 -81t56 -178q0 -134 -70 -194t-156 -77q-28 -5 -54 -7t-50 -2v-98h-10h-196z"/>
<glyph glyph-name="u" horiz-adv-x="723" unicode="Õ" d="M362 223l-135 -223h-10h-224l256 368l-231 332h10h235l99 -180l99 180h10h222l-219 -322l256 -378h-10h-231z"/>
<glyph glyph-name="u" horiz-adv-x="723" unicode="Х" d="M362 223l-135 -223h-10h-224l256 368l-231 332h10h235l99 -180l99 180h10h222l-219 -322l256 -378h-10h-231z"/>
<glyph glyph-name="zero" horiz-adv-x="787" unicode="Ö" d="M63 0v700h10h196v-532h221v532h10h196v-532h84v-308h-10h-168v140h-539z"/>
<glyph glyph-name="zero" horiz-adv-x="787" unicode="Ц" d="M63 0v700h10h196v-532h221v532h10h196v-532h84v-308h-10h-168v140h-539z"/>
<glyph glyph-name="parenright" horiz-adv-x="689" unicode="×" d="M420 0v272q-36 -4 -56 -6t-37 -3h-13h-15h-10q-167 0 -206 65t-41 143v13v13v203h10h196v-175q0 -43 14 -73t89 -32q9 0 22 2t47 5v273h10h196v-700h-10h-196z"/>
<glyph glyph-name="parenright" horiz-adv-x="689" unicode="Ч" d="M420 0v272q-36 -4 -56 -6t-37 -3h-13h-15h-10q-167 0 -206 65t-41 143v13v13v203h10h196v-175q0 -43 14 -73t89 -32q9 0 22 2t47 5v273h10h196v-700h-10h-196z"/>
<glyph glyph-name="x" horiz-adv-x="1060" unicode="Ø" d="M63 0v700h10h196v-532h158v532h10h196v-532h158v532h10h196v-700h-10h-924z"/>
<glyph glyph-name="x" horiz-adv-x="1060" unicode="Ш" d="M63 0v700h10h196v-532h158v532h10h196v-532h158v532h10h196v-700h-10h-924z"/>
<glyph glyph-name="y" horiz-adv-x="1088" unicode="Ù" d="M63 0v700h10h196v-532h158v532h10h196v-532h158v532h10h196v-532h84v-308h-10h-168v140h-840z"/>
<glyph glyph-name="y" horiz-adv-x="1088" unicode="Щ" d="M63 0v700h10h196v-532h158v532h10h196v-532h158v532h10h196v-532h84v-308h-10h-168v140h-840z"/>
<glyph glyph-name="z" horiz-adv-x="759" unicode="Ú" d="M353 140h74q44 0 71 16t27 58q-1 42 -27 58t-71 15h-74v-147zM147 0v532h-140v168h10h336v-273h103q21 0 55 -2t71 -13q56 -16 102 -60t47 -138q-1 -94 -47 -138t-101 -61q-37 -11 -72 -13t-55 -2h-10h-299z"/>
<glyph glyph-name="z" horiz-adv-x="759" unicode="Ъ" d="M353 140h74q44 0 71 16t27 58q-1 42 -27 58t-71 15h-74v-147zM147 0v532h-140v168h10h336v-273h103q21 0 55 -2t71 -13q56 -16 102 -60t47 -138q-1 -94 -47 -138t-101 -61q-37 -11 -72 -13t-55 -2h-10h-299z"/>
<glyph glyph-name="braceleft" horiz-adv-x="948" unicode="Û" d="M679 0v700h10h196v-700h-10h-196zM269 140h74q44 0 71 16t27 58q-1 42 -27 58t-71 15h-74v-147zM63 0v700h10h196v-273h103q21 0 55 -2t71 -13q56 -16 102 -60t47 -138q-1 -94 -47 -138t-101 -61q-37 -11 -72 -13t-55 -2h-10h-299z"/>
<glyph glyph-name="braceleft" horiz-adv-x="948" unicode="Ы" d="M679 0v700h10h196v-700h-10h-196zM269 140h74q44 0 71 16t27 58q-1 42 -27 58t-71 15h-74v-147zM63 0v700h10h196v-273h103q21 0 55 -2t71 -13q56 -16 102 -60t47 -138q-1 -94 -47 -138t-101 -61q-37 -11 -72 -13t-55 -2h-10h-299z"/>
<glyph glyph-name="bar" horiz-adv-x="675" unicode="Ü" d="M269 140h74q44 0 71 16t27 58q-1 42 -27 58t-71 15h-74v-147zM63 0v700h10h196v-273h103q21 0 55 -2t71 -13q56 -16 102 -60t47 -138q-1 -94 -47 -138t-101 -61q-37 -11 -72 -13t-55 -2h-10h-299z"/>
<glyph glyph-name="bar" horiz-adv-x="675" unicode="Ь" d="M269 140h74q44 0 71 16t27 58q-1 42 -27 58t-71 15h-74v-147zM63 0v700h10h196v-273h103q21 0 55 -2t71 -13q56 -16 102 -60t47 -138q-1 -94 -47 -138t-101 -61q-37 -11 -72 -13t-55 -2h-10h-299z"/>
<glyph glyph-name="braceright" horiz-adv-x="630" unicode="Ý" d="M168 427h224q-10 59 -58 99t-115 40h-7t-7 -1q-41 -3 -81 -19t-72 -47h-10v172q23 11 48 21t51 16t51 9t48 3h10q144 0 246 -98t102 -262q0 -181 -104 -280t-245 -99l-10 -1q-25 1 -53 4t-57 10q-22 6 -44 14t-43 20v175h10q37 -33 82 -51t94 -18q78 2 122 46t49 107 h-231v140z"/>
<glyph glyph-name="braceright" horiz-adv-x="630" unicode="Э" d="M168 427h224q-10 59 -58 99t-115 40h-7t-7 -1q-41 -3 -81 -19t-72 -47h-10v172q23 11 48 21t51 16t51 9t48 3h10q144 0 246 -98t102 -262q0 -181 -104 -280t-245 -99l-10 -1q-25 1 -53 4t-57 10q-22 6 -44 14t-43 20v175h10q37 -33 82 -51t94 -18q78 2 122 46t49 107 h-231v140z"/>
<glyph glyph-name="asciitilde" horiz-adv-x="1122" unicode="Þ" d="M708 148q10 0 21 2t22 5q47 13 87 59t40 136t-40 136t-87 59q-11 3 -21 5t-21 2t-23 -2t-23 -6q-47 -14 -85 -60t-38 -134t38 -134t85 -60q11 -4 23 -6t22 -2zM269 432h66q3 17 7 35t11 36q31 81 113 149t238 68h10q188 0 282 -112t94 -258q0 -148 -94 -258t-282 -111 l-10 -1q-151 0 -255 84t-115 214h-65v-278h-10h-196v700h10h196v-268z"/>
<glyph glyph-name="asciitilde" horiz-adv-x="1122" unicode="Ю" d="M708 148q10 0 21 2t22 5q47 13 87 59t40 136t-40 136t-87 59q-11 3 -21 5t-21 2t-23 -2t-23 -6q-47 -14 -85 -60t-38 -134t38 -134t85 -60q11 -4 23 -6t22 -2zM269 432h66q3 17 7 35t11 36q31 81 113 149t238 68h10q188 0 282 -112t94 -258q0 -148 -94 -258t-282 -111 l-10 -1q-151 0 -255 84t-115 214h-65v-278h-10h-196v700h10h196v-268z"/>
<glyph glyph-name="germandbls" horiz-adv-x="654" unicode="ß" d="M385 378v168h-44q-7 0 -20 -1t-27 -5q-20 -6 -36 -24t-17 -54q1 -43 21 -60t45 -22q9 -2 17 -2h17h44zM14 0l189 263q-10 3 -20 5t-21 7q-44 17 -82 63t-38 129q0 121 72 177t180 56h10h287v-700h-10h-196v238h-8l-143 -238h-10h-210z"/>
<glyph glyph-name="germandbls" horiz-adv-x="654" unicode="Я" d="M385 378v168h-44q-7 0 -20 -1t-27 -5q-20 -6 -36 -24t-17 -54q1 -43 21 -60t45 -22q9 -2 17 -2h17h44zM14 0l189 263q-10 3 -20 5t-21 7q-44 17 -82 63t-38 129q0 121 72 177t180 56h10h287v-700h-10h-196v238h-8l-143 -238h-10h-210z"/>
<glyph glyph-name="agrave" horiz-adv-x="647" unicode="à" d="M320 126q44 2 72 32t28 84q0 52 -28 83t-72 32q-48 -2 -72 -34t-27 -70v-5v-6q0 -44 24 -79t75 -37zM413 436v47h10h168v-483h-10h-168v45q-26 -28 -63 -45t-85 -17l-10 -1q-109 1 -167 79t-58 181q0 12 1 25t3 26q12 78 64 143t157 65h10q41 0 77 -13t71 -52z"/>
<glyph glyph-name="agrave" horiz-adv-x="647" unicode="а" d="M320 126q44 2 72 32t28 84q0 52 -28 83t-72 32q-48 -2 -72 -34t-27 -70v-5v-6q0 -44 24 -79t75 -37zM413 436v47h10h168v-483h-10h-168v45q-26 -28 -63 -45t-85 -17l-10 -1q-109 1 -167 79t-58 181q0 12 1 25t3 26q12 78 64 143t157 65h10q41 0 77 -13t71 -52z"/>
<glyph glyph-name="K" horiz-adv-x="640" unicode="á" d="M323 108q51 2 73 38t23 81q0 53 -26 85t-70 34q-49 -2 -73 -38t-24 -81t24 -81t73 -38zM193 399q15 19 33 31t35 22q31 12 59 16t42 4h10q110 0 174 -69t64 -163v-2v-4q-2 -94 -66 -172t-212 -79l-10 -1l-2 1h-1q-15 -1 -55 3t-83 23q-55 25 -101 89t-45 193 q1 182 65 263t141 111q23 8 45 14t44 10l24 4t21 4q29 3 47 11t21 27h10h140q-2 -59 -33 -93t-67 -51q-23 -10 -43 -16t-34 -9q-7 -2 -13 -3t-13 -3q-82 -20 -132 -50t-65 -111z"/>
<glyph glyph-name="K" horiz-adv-x="640" unicode="б" d="M323 108q51 2 73 38t23 81q0 53 -26 85t-70 34q-49 -2 -73 -38t-24 -81t24 -81t73 -38zM193 399q15 19 33 31t35 22q31 12 59 16t42 4h10q110 0 174 -69t64 -163v-2v-4q-2 -94 -66 -172t-212 -79l-10 -1l-2 1h-1q-15 -1 -55 3t-83 23q-55 25 -101 89t-45 193 q1 182 65 263t141 111q23 8 45 14t44 10l24 4t21 4q29 3 47 11t21 27h10h140q-2 -59 -33 -93t-67 -51q-23 -10 -43 -16t-34 -9q-7 -2 -13 -3t-13 -3q-82 -20 -132 -50t-65 -111z"/>
<glyph glyph-name="quotedbl" horiz-adv-x="570" unicode="â" d="M234 294h62h9t10 2q12 2 22 11t10 30q1 19 -9 27t-22 12q-6 2 -11 2h-9h-62v-84zM234 105h67q23 -1 35 7t16 17q3 7 4 13t1 9q-1 21 -15 35t-41 13h-67v-94zM56 0v483h10h316q10 1 28 -1t38 -9q28 -9 50 -32t23 -70q0 -10 -2 -25t-8 -31q-8 -19 -25 -37t-48 -26v-2 q10 -2 20 -5t21 -9q23 -12 43 -38t20 -75q0 -50 -24 -75t-54 -36q-24 -8 -46 -10t-29 -2h-10h-323z"/>
<glyph glyph-name="quotedbl" horiz-adv-x="570" unicode="в" d="M234 294h62h9t10 2q12 2 22 11t10 30q1 19 -9 27t-22 12q-6 2 -11 2h-9h-62v-84zM234 105h67q23 -1 35 7t16 17q3 7 4 13t1 9q-1 21 -15 35t-41 13h-67v-94zM56 0v483h10h316q10 1 28 -1t38 -9q28 -9 50 -32t23 -70q0 -10 -2 -25t-8 -31q-8 -19 -25 -37t-48 -26v-2 q10 -2 20 -5t21 -9q23 -12 43 -38t20 -75q0 -50 -24 -75t-54 -36q-24 -8 -46 -10t-29 -2h-10h-323z"/>
<glyph glyph-name="atilde" horiz-adv-x="409" unicode="ã" d="M56 0v483h10h336v-126h-161v-357h-10h-175z"/>
<glyph glyph-name="atilde" horiz-adv-x="409" unicode="г" d="M56 0v483h10h336v-126h-161v-357h-10h-175z"/>
<glyph glyph-name="adieresis" horiz-adv-x="654" unicode="ä" d="M392 120v243h-106v-87q0 -52 -10 -88t-44 -68h160zM129 483h441v-363h70v-260h-10h-154v140h-298v-140h-10h-154v260q47 0 69 32t29 70q5 22 6 42t1 36v183h10z"/>
<glyph glyph-name="adieresis" horiz-adv-x="654" unicode="д" d="M392 120v243h-106v-87q0 -52 -10 -88t-44 -68h160zM129 483h441v-363h70v-260h-10h-154v140h-298v-140h-10h-154v260q47 0 69 32t29 70q5 22 6 42t1 36v183h10z"/>
<glyph glyph-name="yright" horiz-adv-x="602" unicode="å" d="M208 298h186q-2 36 -24 66t-69 32q-41 -2 -66 -30t-27 -68zM568 147q-20 -59 -56 -93t-73 -49q-39 -15 -75 -19t-56 -3l-10 -1q-108 1 -188 66t-80 194q0 112 70 186t196 73h10q118 0 175 -56t77 -123q8 -28 11 -55t3 -50v-7v-7h-368v-5v-12t2 -12q6 -32 29 -59t68 -28 q34 2 57 17t30 43h10h168z"/>
<glyph glyph-name="yright" horiz-adv-x="602" unicode="е" d="M208 298h186q-2 36 -24 66t-69 32q-41 -2 -66 -30t-27 -68zM568 147q-20 -59 -56 -93t-73 -49q-39 -15 -75 -19t-56 -3l-10 -1q-108 1 -188 66t-80 194q0 112 70 186t196 73h10q118 0 175 -56t77 -123q8 -28 11 -55t3 -50v-7v-7h-368v-5v-12t2 -12q6 -32 29 -59t68 -28 q34 2 57 17t30 43h10h168z"/>
<glyph glyph-name="guilsinglright" horiz-adv-x="870" unicode="æ" d="M346 0v195l-130 -195h-10h-217l196 252l-168 231h10h203l116 -187v187h10h168v-187l116 187h10h203l-168 -231l196 -252h-10h-217l-130 195v-195h-10h-168z"/>
<glyph glyph-name="guilsinglright" horiz-adv-x="870" unicode="ж" d="M346 0v195l-130 -195h-10h-217l196 252l-168 231h10h203l116 -187v187h10h168v-187l116 187h10h203l-168 -231l196 -252h-10h-217l-130 195v-195h-10h-168z"/>
<glyph glyph-name="florin" horiz-adv-x="507" unicode="ç" d="M85 345l-47 108q22 13 47 21t51 14q28 7 56 10t50 3h10q94 0 146 -37t52 -99q0 -37 -19 -67t-53 -46v-2q41 -9 63 -31t31 -46q4 -11 6 -21t1 -21q0 -5 -4 -27t-22 -47q-20 -28 -66 -51t-133 -23l-10 -1q-29 2 -90 10t-133 48l45 114h10q12 -7 23 -13t21 -10 q23 -11 47 -17t54 -6q26 0 40 8t20 17q5 7 6 13t1 9q0 21 -15 29t-32 11q-7 1 -13 1h-12h-76v105h86q5 1 12 1t15 2q12 4 22 12t10 26q0 20 -13 29t-29 13q-6 2 -12 2h-11q-8 0 -16 -1t-17 -3q-24 -4 -48 -14t-44 -23h-10z"/>
<glyph glyph-name="florin" horiz-adv-x="507" unicode="з" d="M85 345l-47 108q22 13 47 21t51 14q28 7 56 10t50 3h10q94 0 146 -37t52 -99q0 -37 -19 -67t-53 -46v-2q41 -9 63 -31t31 -46q4 -11 6 -21t1 -21q0 -5 -4 -27t-22 -47q-20 -28 -66 -51t-133 -23l-10 -1q-29 2 -90 10t-133 48l45 114h10q12 -7 23 -13t21 -10 q23 -11 47 -17t54 -6q26 0 40 8t20 17q5 7 6 13t1 9q0 21 -15 29t-32 11q-7 1 -13 1h-12h-76v105h86q5 1 12 1t15 2q12 4 22 12t10 26q0 20 -13 29t-29 13q-6 2 -12 2h-11q-8 0 -16 -1t-17 -3q-24 -4 -48 -14t-44 -23h-10z"/>
<glyph glyph-name="comma" horiz-adv-x="640" unicode="è" d="M66 483h175v-244l165 244h10h168v-483h-10h-175v251l-163 -251h-10h-170v483h10z"/>
<glyph glyph-name="comma" horiz-adv-x="640" unicode="и" d="M66 483h175v-244l165 244h10h168v-483h-10h-175v251l-163 -251h-10h-170v483h10z"/>
<glyph glyph-name="L" horiz-adv-x="634" unicode="é" d="M128 658l114 42h10q7 -23 19 -35t25 -17q9 -4 18 -6t16 -1q7 -1 16 1t18 5q14 5 26 17t19 36h10l114 -42q-27 -60 -81 -86t-116 -26h-10h-8h-6q-57 4 -108 30t-76 82zM63 483h175v-244l165 244h10h168v-483h-10h-175v251l-163 -251h-10h-170v483h10z"/>
<glyph glyph-name="L" horiz-adv-x="634" unicode="й" d="M128 658l114 42h10q7 -23 19 -35t25 -17q9 -4 18 -6t16 -1q7 -1 16 1t18 5q14 5 26 17t19 36h10l114 -42q-27 -60 -81 -86t-116 -26h-10h-8h-6q-57 4 -108 30t-76 82zM63 483h175v-244l165 244h10h168v-483h-10h-175v251l-163 -251h-10h-170v483h10z"/>
<glyph glyph-name="asterisk" horiz-adv-x="608" unicode="ê" d="M56 0v483h10h175v-184l136 184h10h214l-199 -227l217 -256h-10h-221l-147 200v-200h-10h-175z"/>
<glyph glyph-name="asterisk" horiz-adv-x="608" unicode="к" d="M56 0v483h10h175v-184l136 184h10h214l-199 -227l217 -256h-10h-221l-147 200v-200h-10h-175z"/>
<glyph glyph-name="edieresis" horiz-adv-x="633" unicode="ë" d="M577 483v-483h-10h-175v363h-102v-202q0 -14 -2 -32t-6 -37q-10 -38 -46 -70t-120 -32l-10 -1q-10 1 -23 2t-26 3q-7 0 -15 2t-16 3q-3 1 -6 1h-6v126h10l8 -2t10 -2h4t5 -1q23 1 42 19t19 67v276h10h455z"/>
<glyph glyph-name="edieresis" horiz-adv-x="633" unicode="л" d="M577 483v-483h-10h-175v363h-102v-202q0 -14 -2 -32t-6 -37q-10 -38 -46 -70t-120 -32l-10 -1q-10 1 -23 2t-26 3q-7 0 -15 2t-16 3q-3 1 -6 1h-6v126h10l8 -2t10 -2h4t5 -1q23 1 42 19t19 67v276h10h455z"/>
<glyph glyph-name="igrave" horiz-adv-x="772" unicode="ì" d="M14 0l77 483h10h189l96 -273l96 273h10h189l77 -483h-10h-166l-38 247l-90 -247h-10h-126l-90 247l-38 -247h-10h-166z"/>
<glyph glyph-name="igrave" horiz-adv-x="772" unicode="м" d="M14 0l77 483h10h189l96 -273l96 273h10h189l77 -483h-10h-166l-38 247l-90 -247h-10h-126l-90 247l-38 -247h-10h-166z"/>
<glyph glyph-name="ellipsis" horiz-adv-x="633" unicode="í" d="M56 0v483h10h175v-170h151v170h10h175v-483h-10h-175v193h-151v-193h-10h-175z"/>
<glyph glyph-name="ellipsis" horiz-adv-x="633" unicode="н" d="M56 0v483h10h175v-170h151v170h10h175v-483h-10h-175v193h-151v-193h-10h-175z"/>
<glyph glyph-name="percent" horiz-adv-x="648" unicode="î" d="M324 108q41 1 62 22t30 46q8 22 10 40t1 26q0 56 -26 94t-77 39q-52 -1 -78 -39t-25 -94q-1 -8 1 -26t10 -40q9 -24 30 -45t62 -23zM319 -18q-145 2 -217 76t-72 184q0 107 72 183t217 76h10q145 0 217 -76t72 -183t-72 -183t-217 -76z"/>
<glyph glyph-name="percent" horiz-adv-x="648" unicode="о" d="M324 108q41 1 62 22t30 46q8 22 10 40t1 26q0 56 -26 94t-77 39q-52 -1 -78 -39t-25 -94q-1 -8 1 -26t10 -40q9 -24 30 -45t62 -23zM319 -18q-145 2 -217 76t-72 184q0 107 72 183t217 76h10q145 0 217 -76t72 -183t-72 -183t-217 -76z"/>
<glyph glyph-name="C" horiz-adv-x="626" unicode="ï" d="M66 483h504v-483h-10h-175v363h-144v-363h-10h-175v483h10z"/>
<glyph glyph-name="C" horiz-adv-x="626" unicode="п" d="M66 483h504v-483h-10h-175v363h-144v-363h-10h-175v483h10z"/>
<glyph glyph-name="eth" horiz-adv-x="648" unicode="ð" d="M327 126q43 2 71 32t29 84q0 52 -28 83t-72 32q-43 -3 -65 -25t-29 -49q-3 -11 -5 -21t-1 -20q-1 -10 1 -20t5 -20q7 -28 29 -51t65 -25zM234 483v-47q31 34 66 50t83 15h10q105 0 165 -73t60 -186q0 -103 -59 -181t-166 -78l-10 -1q-40 2 -75 14t-67 43v-249h-10h-175 v693h10h168z"/>
<glyph glyph-name="eth" horiz-adv-x="648" unicode="р" d="M327 126q43 2 71 32t29 84q0 52 -28 83t-72 32q-43 -3 -65 -25t-29 -49q-3 -11 -5 -21t-1 -20q-1 -10 1 -20t5 -20q7 -28 29 -51t65 -25zM234 483v-47q31 34 66 50t83 15h10q105 0 165 -73t60 -186q0 -103 -59 -181t-166 -78l-10 -1q-40 2 -75 14t-67 43v-249h-10h-175 v693h10h168z"/>
<glyph glyph-name="quotedblleft" horiz-adv-x="469" unicode="ñ" d="M439 172v-153q-3 -1 -15 -7t-30 -11q-20 -6 -48 -12t-60 -6l-10 -1q-122 2 -184 80t-62 180q0 106 64 182t182 77h10q18 0 34 -2t34 -5q20 -4 41 -12t44 -19v-152h-10q-25 23 -53 36t-57 14q-50 -1 -74 -37t-24 -83q0 -49 27 -82t78 -35q20 0 46 10t57 38h10z"/>
<glyph glyph-name="quotedblleft" horiz-adv-x="469" unicode="с" d="M439 172v-153q-3 -1 -15 -7t-30 -11q-20 -6 -48 -12t-60 -6l-10 -1q-122 2 -184 80t-62 180q0 106 64 182t182 77h10q18 0 34 -2t34 -5q20 -4 41 -12t44 -19v-152h-10q-25 23 -53 36t-57 14q-50 -1 -74 -37t-24 -83q0 -49 27 -82t78 -35q20 0 46 10t57 38h10z"/>
<glyph glyph-name="two" horiz-adv-x="451" unicode="ò" d="M133 0v357h-126v126h10h427v-126h-126v-357h-10h-175z"/>
<glyph glyph-name="two" horiz-adv-x="451" unicode="т" d="M133 0v357h-126v126h10h427v-126h-126v-357h-10h-175z"/>
<glyph glyph-name="three" horiz-adv-x="618" unicode="ó" d="M-1 483h203l128 -248l108 248h10h181l-350 -693h-10h-189l147 280l-238 413h10z"/>
<glyph glyph-name="three" horiz-adv-x="618" unicode="у" d="M-1 483h203l128 -248l108 248h10h181l-350 -693h-10h-189l147 280l-238 413h10z"/>
<glyph glyph-name="ocircumflex" horiz-adv-x="797" unicode="ô" d="M480 372v-268q49 3 79 40t30 94q0 56 -30 94t-79 40zM317 104v268q-45 -4 -77 -38t-32 -96t32 -96t77 -38zM306 -210v203q-22 1 -55 4t-69 16q-56 20 -104 72t-48 157q0 104 48 156t104 73q36 11 69 15t55 4v210h10h175v-210q22 0 55 -4t69 -15q57 -21 105 -73t47 -156 q1 -118 -61 -172t-136 -70l-40 -4t-39 -2v-204h-10h-175z"/>
<glyph glyph-name="ocircumflex" horiz-adv-x="797" unicode="ф" d="M480 372v-268q49 3 79 40t30 94q0 56 -30 94t-79 40zM317 104v268q-45 -4 -77 -38t-32 -96t32 -96t77 -38zM306 -210v203q-22 1 -55 4t-69 16q-56 20 -104 72t-48 157q0 104 48 156t104 73q36 11 69 15t55 4v210h10h175v-210q22 0 55 -4t69 -15q57 -21 105 -73t47 -156 q1 -118 -61 -172t-136 -70l-40 -4t-39 -2v-204h-10h-175z"/>
<glyph glyph-name="otilde" horiz-adv-x="612" unicode="õ" d="M-7 0l212 258l-177 225h10h214l72 -121l74 121h10h204l-182 -227l189 -256h-10h-203l-93 150l-98 -150h-10h-212z"/>
<glyph glyph-name="otilde" horiz-adv-x="612" unicode="х" d="M-7 0l212 258l-177 225h10h214l72 -121l74 121h10h204l-182 -227l189 -256h-10h-203l-93 150l-98 -150h-10h-212z"/>
<glyph glyph-name="odieresis" horiz-adv-x="647" unicode="ö" d="M56 0v483h10h175v-363h137v363h10h175v-363h70v-260h-10h-154v140h-413z"/>
<glyph glyph-name="odieresis" horiz-adv-x="647" unicode="ц" d="M56 0v483h10h175v-363h137v363h10h175v-363h70v-260h-10h-154v140h-413z"/>
<glyph glyph-name="divide" horiz-adv-x="577" unicode="÷" d="M336 0v156l-18 -2t-19 -2q-19 -2 -37 -2h-31h-10q-91 0 -135 34t-44 107v192h10h168v-153q0 -34 16 -46t34 -14h6h5q12 0 25 2t30 5v206h10h175v-483h-10h-175z"/>
<glyph glyph-name="divide" horiz-adv-x="577" unicode="ч" d="M336 0v156l-18 -2t-19 -2q-19 -2 -37 -2h-31h-10q-91 0 -135 34t-44 107v192h10h168v-153q0 -34 16 -46t34 -14h6h5q12 0 25 2t30 5v206h10h175v-483h-10h-175z"/>
<glyph glyph-name="oslash" horiz-adv-x="923" unicode="ø" d="M56 0v483h10h175v-363h128v363h10h175v-363h128v363h10h175v-483h-10h-801z"/>
<glyph glyph-name="oslash" horiz-adv-x="923" unicode="ш" d="M56 0v483h10h175v-363h128v363h10h175v-363h128v363h10h175v-483h-10h-801z"/>
<glyph glyph-name="question" horiz-adv-x="951" unicode="ù" d="M56 0v483h10h175v-363h128v363h10h175v-363h128v363h10h175v-363h70v-260h-10h-154v140h-717z"/>
<glyph glyph-name="question" horiz-adv-x="951" unicode="щ" d="M56 0v483h10h175v-363h128v363h10h175v-363h128v363h10h175v-363h70v-260h-10h-154v140h-717z"/>
<glyph glyph-name="A" horiz-adv-x="616" unicode="ú" d="M311 112h48q23 0 35 10t16 22q2 6 2 10t1 8q-1 24 -17 36t-37 12h-48v-98zM311 322h106q77 0 115 -34t51 -74q4 -15 6 -29t2 -27q0 -70 -48 -114t-126 -44h-10h-281v357h-119v126h10h294v-161z"/>
<glyph glyph-name="A" horiz-adv-x="616" unicode="ъ" d="M311 112h48q23 0 35 10t16 22q2 6 2 10t1 8q-1 24 -17 36t-37 12h-48v-98zM311 322h106q77 0 115 -34t51 -74q4 -15 6 -29t2 -27q0 -70 -48 -114t-126 -44h-10h-281v357h-119v126h10h294v-161z"/>
<glyph glyph-name="slash" horiz-adv-x="797" unicode="û" d="M556 0v483h10h175v-483h-10h-175zM241 112h48q23 0 35 10t16 22q2 6 2 10t1 8q-1 24 -17 36t-37 12h-48v-98zM241 322h106q77 0 115 -34t51 -74q4 -15 6 -29t2 -27q0 -70 -48 -114t-126 -44h-10h-281v483h10h175v-161z"/>
<glyph glyph-name="slash" horiz-adv-x="797" unicode="ы" d="M556 0v483h10h175v-483h-10h-175zM241 112h48q23 0 35 10t16 22q2 6 2 10t1 8q-1 24 -17 36t-37 12h-48v-98zM241 322h106q77 0 115 -34t51 -74q4 -15 6 -29t2 -27q0 -70 -48 -114t-126 -44h-10h-281v483h10h175v-161z"/>
<glyph glyph-name="udieresis" horiz-adv-x="546" unicode="ü" d="M241 112h48q23 0 35 10t16 22q2 6 2 10t1 8q-1 24 -17 36t-37 12h-48v-98zM241 322h106q77 0 115 -34t51 -74q4 -15 6 -29t2 -27q0 -70 -48 -114t-126 -44h-10h-281v483h10h175v-161z"/>
<glyph glyph-name="udieresis" horiz-adv-x="546" unicode="ь" d="M241 112h48q23 0 35 10t16 22q2 6 2 10t1 8q-1 24 -17 36t-37 12h-48v-98zM241 322h106q77 0 115 -34t51 -74q4 -15 6 -29t2 -27q0 -70 -48 -114t-126 -44h-10h-281v483h10h175v-161z"/>
<glyph glyph-name="period" horiz-adv-x="502" unicode="ý" d="M42 7v140h10q38 -28 72 -37t61 -10q55 2 87 28t36 65h-203v105h199q-8 42 -43 66t-79 25q-32 -1 -58 -11t-45 -24q-7 -4 -13 -8t-11 -9h-10v133q5 2 9 4t8 3q34 13 68 19t62 5h10q126 0 198 -76t72 -180q0 -106 -70 -185t-200 -79l-10 -1q-39 1 -68 6t-49 10q-11 4 -19 6 t-14 5z"/>
<glyph glyph-name="period" horiz-adv-x="502" unicode="э" d="M42 7v140h10q38 -28 72 -37t61 -10q55 2 87 28t36 65h-203v105h199q-8 42 -43 66t-79 25q-32 -1 -58 -11t-45 -24q-7 -4 -13 -8t-11 -9h-10v133q5 2 9 4t8 3q34 13 68 19t62 5h10q126 0 198 -76t72 -180q0 -106 -70 -185t-200 -79l-10 -1q-39 1 -68 6t-49 10q-11 4 -19 6 t-14 5z"/>
<glyph glyph-name="thorn" horiz-adv-x="894" unicode="þ" d="M572 108q51 2 76 40t25 94q-1 56 -25 94t-76 39q-52 -1 -76 -39t-25 -94q0 -56 25 -94t76 -40zM241 193v-193h-10h-175v483h10h175v-178h45q4 13 8 27t11 28q27 53 87 97t175 44h10q147 -1 217 -77t70 -182q0 -107 -70 -183t-219 -76l-10 -1q-125 0 -187 52t-83 114 q-5 12 -7 23l-4 22h-43z"/>
<glyph glyph-name="thorn" horiz-adv-x="894" unicode="ю" d="M572 108q51 2 76 40t25 94q-1 56 -25 94t-76 39q-52 -1 -76 -39t-25 -94q0 -56 25 -94t76 -40zM241 193v-193h-10h-175v483h10h175v-178h45q4 13 8 27t11 28q27 53 87 97t175 44h10q147 -1 217 -77t70 -182q0 -107 -70 -183t-219 -76l-10 -1q-125 0 -187 52t-83 114 q-5 12 -7 23l-4 22h-43z"/>
<glyph glyph-name="OE" horiz-adv-x="1109" unicode="Œ" d="M703 140h74q44 0 71 16t27 58q-1 42 -27 58t-71 15h-74v-147zM63 0v700h10h196v-273h228v273h10h196v-273h103q21 0 55 -2t71 -13q56 -16 102 -60t47 -138q-1 -94 -47 -138t-101 -61q-37 -11 -72 -13t-55 -2h-10h-299v287h-228v-287h-10h-196z"/>
<glyph glyph-name="glyph258" horiz-adv-x="882" unicode="œ" d="M577 112h48q23 0 35 10t16 22q2 6 2 10t1 8q-1 24 -17 36t-37 12h-48v-98zM56 0v483h10h175v-161h151v161h10h175v-161h106q77 0 115 -34t51 -74q4 -15 6 -29t2 -27q0 -70 -48 -114t-126 -44h-10h-281v202h-151v-202h-10h-175z"/>
<glyph glyph-name="perthousand" horiz-adv-x="1088" unicode="Š" d="M682 140h74q44 0 71 16t27 58t-26 58t-72 15h-74v-147zM150 700h532v-273h103q21 0 55 -2t71 -13q57 -16 103 -60t46 -138t-46 -138t-102 -61q-37 -11 -72 -13t-55 -2h-10h-299v532h-130v-276q0 -22 -2 -48t-7 -53q-13 -63 -65 -113t-180 -50l-10 -1q-16 1 -28 1t-25 3 q-7 1 -14 3t-15 2v168h10l20 -4t19 -3q65 3 78 47t13 106v386h10z"/>
<glyph glyph-name="eight" horiz-adv-x="882" unicode="š" d="M577 112h48q23 0 35 10t16 22q2 6 2 10t1 8q-1 24 -17 36t-37 12h-48v-98zM577 483v-161h106q77 0 115 -34t51 -74q4 -15 6 -29t2 -27q0 -70 -48 -114t-126 -44h-10h-281v363h-102v-202q0 -14 -2 -32t-6 -37q-10 -38 -46 -70t-120 -32l-10 -1q-10 1 -23 2t-26 3 q-7 0 -15 2t-16 3q-3 1 -6 1h-6v126h10l8 -2t10 -2h4t5 -1q23 1 42 19t19 67v276h10h455z"/>
<glyph glyph-name="glyph237" horiz-adv-x="10" unicode="ˆ"/>
<glyph glyph-name="seven" horiz-adv-x="10" unicode="˜"/>
<glyph glyph-name="dollar" horiz-adv-x="650" unicode="–" d="M50 300v100h10h540v-100h-10h-540z"/>
<glyph glyph-name="numbersign" horiz-adv-x="834" unicode="—" d="M42 323h760v-100h-10h-760v100h10z"/>
<glyph glyph-name="four" horiz-adv-x="346" unicode="‘" d="M318 700l-105 -308h-10h-175l147 308h10h133z"/>
<glyph glyph-name="parenleft" horiz-adv-x="332" unicode="‚" d="M14 -140l105 308h10h175l-147 -308h-10h-133z"/>
<glyph glyph-name="oe" horiz-adv-x="577" unicode="“" d="M549 700l-105 -308h-10h-175l147 308h10h133zM318 700l-105 -308h-10h-175l147 308h10h133z"/>
<glyph glyph-name="B" horiz-adv-x="577" unicode="”" d="M259 392l105 308h10h175l-147 -308h-10h-133zM28 392l105 308h10h175l-147 -308h-10h-133z"/>
<glyph glyph-name="glyph233" horiz-adv-x="598" unicode="†" d="M203 -210v560h-175v161h175v224h10h182v-224h175v-161h-175v-560h-10h-182z"/>
<glyph glyph-name="glyph236" horiz-adv-x="682" unicode="‡" d="M135 392q-16 28 -23 56t-7 60q-1 84 65 148t193 64h10q118 0 175 -44t78 -98q10 -26 14 -50t3 -45h-10h-181q1 5 1 10v9q0 36 -20 54t-44 22q-3 2 -7 2h-8q-34 -2 -56 -24t-21 -60q0 -17 3 -32t7 -27l5 -15l3 -9t2 -5l2 -4l1 -2v-1q2 -2 2 -4t1 -5h142v-91h-120 q1 -12 3 -24t2 -24q0 -24 -5 -48t-15 -47q42 -12 64 -18t35 -7q21 1 32 13t14 25q1 3 1 5v6h10h168q-26 -124 -76 -162t-104 -39l-10 -1q-4 1 -10 1t-12 1q-25 2 -49 7t-44 11l-12 4l-12 4q-19 7 -39 13t-39 7h-5t-6 -1q-9 -2 -17 -8t-13 -19h-10h-175q3 83 49 129t110 46h2 h2h1h2q4 8 7 19t3 26q-1 16 -5 36t-19 45h-138v91h100z"/>
<glyph glyph-name="glyph232" horiz-adv-x="1000" unicode="…" d="M723 84q-1 42 29 72t73 30h10q41 0 71 -30t31 -72q-1 -43 -31 -72t-71 -29l-10 -1q-43 1 -73 31t-29 71zM393 84q1 42 31 72t71 30h10q43 0 73 -30t29 -72q1 -41 -29 -71t-73 -30l-10 -1q-41 1 -71 30t-31 72zM63 84q1 42 31 72t71 30h10q41 0 71 -30t31 -72 q-1 -43 -31 -72t-71 -29l-10 -1q-41 1 -71 30t-31 72z"/>
<glyph glyph-name="v" horiz-adv-x="1320" unicode="‰" d="M146 528v-8t2 -10q6 -21 24 -39t46 -20q32 2 52 24t20 53t-18 50t-41 25q-3 0 -7 1t-6 1q-30 -2 -51 -25t-21 -52zM21 528q0 78 56 135t136 57h10q80 0 136 -57t56 -135t-56 -135t-136 -57h-10q-80 0 -136 57t-56 135zM1030 172v-8t2 -10q6 -21 24 -39t46 -20q32 2 52 24 t20 53t-18 50t-41 25q-3 0 -7 1t-6 1q-30 -2 -51 -25t-21 -52zM905 172q0 78 56 135t136 57h10q80 0 136 -57t56 -135t-56 -134t-136 -57l-10 -1q-80 2 -136 58t-56 134zM602 172v-8t2 -10q6 -21 24 -39t46 -20q32 2 52 24t20 53t-18 50t-41 25q-3 0 -7 1t-6 1 q-30 -2 -51 -25t-21 -52zM477 172q0 78 56 135t136 57h10q80 0 136 -57t56 -135t-56 -134t-136 -57l-10 -1q-78 0 -135 56t-57 136zM168 -20l455 740h10h91l-455 -740h-10h-91z"/>
<glyph glyph-name="glyph243" horiz-adv-x="332" unicode="‹" d="M198 21l-170 231l170 231h10l96 -59l-126 -172l126 -171l-96 -60h-10z"/>
<glyph glyph-name="less" horiz-adv-x="332" unicode="›" d="M133 483l171 -231l-171 -231h-10l-95 60l126 171l-126 172l95 59h10z"/>
<glyph glyph-name="six" horiz-adv-x="802" unicode="™" d="M536 567l36 133h10h126l44 -280h-10h-102l-20 129l-37 -129h-10h-84l-37 129l-20 -129h-10h-102l44 280h10h126zM120 420v190h-70v90h10h260v-90h-70v-190h-10h-120z"/>
</font>
</defs>
</svg>
